<svg xmlns="http://www.w3.org/2000/svg" viewBox="0 0 767 100.09"><defs><style>.cls-1{fill:#f5f2d0;}</style></defs><title>Element 3</title><g id="Ebene_2" data-name="Ebene 2"><g id="Ebene_1-2" data-name="Ebene 1"><rect y="0.03" width="767" height="100.06"/><rect width="767" height="100.06"/><rect class="cls-1" y="45.55" width="767" height="7.69"/><ellipse class="cls-1" cx="75.83" cy="18.95" rx="10.02" ry="10.48"/><path class="cls-1" d="M78.52,34.08H73.13c-1.48,0-4,1.31-5.56,2.91S64.7,43.87,64.7,48.72a129.11,129.11,0,0,0,1.49,17.69l1.9,11.28c.82,4.88.39,8.88-1,8.88s-2.44,2.5-2.44,5.56,1.52,5.56,3.38,5.56h15.5c1.86,0,3.38-2.5,3.38-5.56s-1.1-5.56-2.44-5.56-1.77-4-1-8.88l1.9-11.28A129.11,129.11,0,0,0,87,48.72c0-4.85-1.29-10.13-2.87-11.73S80,34.08,78.52,34.08Z"/><path class="cls-1" d="M114.6,95.87h-1.44V79.43h1.44Z"/><path class="cls-1" d="M134.09,95.87H132.7L132,88c-.27-2.64-.53-5.67-.63-7.15l-4.12,13.08h-1.37l-4.28-13.08c-.07,1.63-.33,4.58-.55,7.1l-.72,7.92h-1.37l1.56-16.44h2l4.08,12.79,3.93-12.79h2Z"/><path class="cls-1" d="M148.35,84.35c0,3.7-2.57,5.11-6.15,5.11h-2.35v6.41h-1.44V79.43h3.87C146.09,79.43,148.35,80.94,148.35,84.35Zm-1.51,0c0-2.78-1.71-3.76-4.59-3.76h-2.4v7.68h2.35C144.94,88.29,146.84,87.4,146.84,84.37Z"/><path class="cls-1" d="M156.82,88.5h-3.29v7.37h-1.44V79.43h4c4,0,5.85,1.56,5.85,4.46,0,2.45-1.34,3.75-3.67,4.35l4.51,7.63h-1.7Zm-.55-1.17c2.61,0,4.13-1,4.13-3.44,0-2.18-1.23-3.28-4.37-3.28h-2.5v6.72Z"/><path class="cls-1" d="M174.44,80.63h-6.75v6.12h5.83V88h-5.83v6.72h7.08v1.2h-8.52V79.43h8.35Z"/><path class="cls-1" d="M186.77,81l-.84.91a5.44,5.44,0,0,0-3.84-1.51c-2,0-3.41,1.06-3.41,2.78s.89,2.45,3.84,3.34,4.76,2,4.76,4.87-2.14,4.75-5.45,4.75a7.29,7.29,0,0,1-5.26-2.06l.82-.91a6.3,6.3,0,0,0,4.41,1.75c2.31,0,4-1.27,4-3.48,0-2-1-2.81-3.91-3.72-3.26-1-4.68-2.14-4.68-4.51s1.94-4,4.82-4A6.45,6.45,0,0,1,186.77,81Z"/><path class="cls-1" d="M199.37,81l-.84.91a5.44,5.44,0,0,0-3.84-1.51c-2,0-3.41,1.06-3.41,2.78s.89,2.45,3.84,3.34,4.76,2,4.76,4.87-2.14,4.75-5.45,4.75a7.29,7.29,0,0,1-5.26-2.06l.82-.91a6.3,6.3,0,0,0,4.41,1.75c2.31,0,4-1.27,4-3.48,0-2-1-2.81-3.91-3.72-3.26-1-4.68-2.14-4.68-4.51s1.94-4,4.82-4A6.45,6.45,0,0,1,199.37,81Z"/></g></g></svg>