<svg xmlns="http://www.w3.org/2000/svg" xmlns:xlink="http://www.w3.org/1999/xlink" viewBox="0 0 767 100.07"><defs><style>.cls-1{fill:none;}.cls-2{clip-path:url(#clip-path);}.cls-3{fill:#bdbbac;}.cls-4{clip-path:url(#clip-path-2);}.cls-5{opacity:0.2;}.cls-6{clip-path:url(#clip-path-3);}.cls-7{clip-path:url(#clip-path-4);}.cls-8{clip-path:url(#clip-path-5);}.cls-9{clip-path:url(#clip-path-6);}.cls-10{clip-path:url(#clip-path-7);}.cls-11{clip-path:url(#clip-path-8);}.cls-12{opacity:0.2;}.cls-13{clip-path:url(#clip-path-9);}.cls-14{clip-path:url(#clip-path-10);}</style><clipPath id="clip-path"><rect class="cls-1" x="535.58" y="10.22" width="34.83" height="24.01"/></clipPath><clipPath id="clip-path-2"><rect class="cls-1" x="534.79" y="28.33" width="36.4" height="54.17"/></clipPath><clipPath id="clip-path-3"><rect class="cls-1" x="196.58" y="10.37" width="34.83" height="23.91"/></clipPath><clipPath id="clip-path-4"><rect class="cls-1" x="195.8" y="28.4" width="36.4" height="53.96"/></clipPath><clipPath id="clip-path-5"><rect class="cls-1" x="366.08" y="10.22" width="34.83" height="24.01"/></clipPath><clipPath id="clip-path-6"><rect class="cls-1" x="365.3" y="28.33" width="36.4" height="54.17"/></clipPath><clipPath id="clip-path-7"><rect class="cls-1" x="27.59" y="13.23" width="34.83" height="24.01"/></clipPath><clipPath id="clip-path-8"><rect class="cls-1" x="26.8" y="31.34" width="36.4" height="54.17"/></clipPath><clipPath id="clip-path-9"><rect class="cls-1" x="705.08" y="10.22" width="34.83" height="24.01"/></clipPath><clipPath id="clip-path-10"><rect class="cls-1" x="704.29" y="28.33" width="36.4" height="54.17"/></clipPath></defs><title>Element 3</title><g id="Ebene_2" data-name="Ebene 2"><g id="Ebene_1-2" data-name="Ebene 1"><g id="Ebene_2-2" data-name="Ebene 2"><g id="Ebene_1-2-2" data-name="Ebene 1-2"><rect width="767" height="100.06"/><rect y="0.01" width="767" height="100.06"/><g class="cls-2"><path class="cls-3" d="M553,33.09a7.26,7.26,0,0,0,7.08-7.42,7.09,7.09,0,0,0-14.17-.48,3.84,3.84,0,0,0,0,.48A7.27,7.27,0,0,0,553,33.09"/></g><g class="cls-4"><path class="cls-3" d="M554.91,36.37h-3.82a6.62,6.62,0,0,0-3.85,2l-.16.16a7.79,7.79,0,0,0-2,4.77v6.9a39.85,39.85,0,0,0,.46,5.57l2.53,15c.25,1.51-.32,2.74-1.27,2.74s-1.72,1.26-1.72,2.78v2.31a2.61,2.61,0,0,0,2.38,2.78h11a2.61,2.61,0,0,0,2.39-2.78V76.28c0-1.52-.8-2.78-1.73-2.78s-1.51-1.23-1.26-2.74l2.53-15.05a41.43,41.43,0,0,0,.46-5.57V43.27a7.79,7.79,0,0,0-2-4.77l-.16-.16a6.65,6.65,0,0,0-3.85-2"/></g><g class="cls-5"><g class="cls-6"><path class="cls-3" d="M214,33.14a7.24,7.24,0,0,0,7.08-7.39,7.09,7.09,0,0,0-14.16-.67c0,.22,0,.45,0,.67A7.24,7.24,0,0,0,214,33.14"/></g></g><g class="cls-5"><g class="cls-7"><path class="cls-3" d="M215.91,36.41h-3.82a6.61,6.61,0,0,0-3.85,2l-.16.16a7.75,7.75,0,0,0-2,4.75v6.88a39.43,39.43,0,0,0,.46,5.54l2.53,14.91c.25,1.51-.32,2.73-1.27,2.73s-1.72,1.26-1.72,2.78v2.29a2.6,2.6,0,0,0,2.38,2.77h11a2.61,2.61,0,0,0,2.39-2.77V76.17c0-1.53-.8-2.78-1.73-2.78s-1.51-1.22-1.26-2.73l2.53-15a41,41,0,0,0,.46-5.54V43.28a7.75,7.75,0,0,0-2-4.75l-.16-.16a6.63,6.63,0,0,0-3.85-2"/></g></g><rect class="cls-3" y="46.57" width="767" height="5.6"/><g class="cls-5"><g class="cls-8"><path class="cls-3" d="M383.5,33.09a7.26,7.26,0,0,0,7.08-7.42A7.09,7.09,0,1,0,376.42,25c0,.22,0,.45,0,.67a7.26,7.26,0,0,0,7.08,7.42"/></g></g><g class="cls-5"><g class="cls-9"><path class="cls-3" d="M385.41,36.37h-3.82a6.62,6.62,0,0,0-3.85,2l-.16.16a7.79,7.79,0,0,0-1.95,4.77v6.9a39.85,39.85,0,0,0,.46,5.57l2.53,15c.25,1.51-.32,2.74-1.27,2.74s-1.72,1.26-1.72,2.78v2.31A2.61,2.61,0,0,0,378,81.33h11a2.61,2.61,0,0,0,2.39-2.78V76.28c0-1.52-.8-2.78-1.73-2.78s-1.51-1.23-1.26-2.74l2.53-15.05a41.43,41.43,0,0,0,.46-5.57V43.27a7.79,7.79,0,0,0-1.95-4.77l-.16-.16a6.65,6.65,0,0,0-3.85-2"/></g></g><g class="cls-5"><g class="cls-10"><path class="cls-3" d="M45,36.09a7.25,7.25,0,0,0,7.09-7.42A7.09,7.09,0,0,0,37.92,28c0,.23,0,.45,0,.67A7.25,7.25,0,0,0,45,36.09"/></g></g><g class="cls-5"><g class="cls-11"><path class="cls-3" d="M46.91,39.37H43.1a6.73,6.73,0,0,0-3.86,2l-.16.16a7.89,7.89,0,0,0-1.95,4.77v6.91a39.85,39.85,0,0,0,.47,5.56l2.52,15c.26,1.51-.31,2.75-1.26,2.75s-1.73,1.28-1.73,2.82v2.3a2.62,2.62,0,0,0,2.39,2.78h11a2.6,2.6,0,0,0,2.38-2.78v-2.3c0-1.53-.79-2.78-1.72-2.78s-1.52-1.25-1.27-2.79l2.53-15a38.37,38.37,0,0,0,.46-5.56V46.27a7.82,7.82,0,0,0-1.94-4.77l-.16-.15a6.62,6.62,0,0,0-3.86-2"/></g></g><g class="cls-12"><g class="cls-13"><path class="cls-3" d="M722.5,33.09a7.26,7.26,0,0,0,7.08-7.42A7.09,7.09,0,1,0,715.42,25c0,.22,0,.45,0,.67a7.26,7.26,0,0,0,7.08,7.42"/></g></g><g class="cls-12"><g class="cls-14"><path class="cls-3" d="M724.41,36.37h-3.82a6.62,6.62,0,0,0-3.85,2l-.16.16a7.79,7.79,0,0,0-2,4.77v6.9a39.85,39.85,0,0,0,.46,5.57l2.53,15c.25,1.51-.32,2.74-1.27,2.74s-1.72,1.26-1.72,2.78v2.31A2.61,2.61,0,0,0,717,81.33h11a2.61,2.61,0,0,0,2.39-2.78V76.28c0-1.52-.8-2.78-1.73-2.78s-1.51-1.23-1.26-2.74l2.53-15.05a41.43,41.43,0,0,0,.46-5.57V43.27a7.79,7.79,0,0,0-2-4.77l-.16-.16a6.65,6.65,0,0,0-3.85-2"/></g></g></g></g><path class="cls-3" d="M587.79,74.31c0,3.08-2.14,4.26-5.12,4.26h-2v5.35h-1.2V70.21h3.22C585.91,70.21,587.79,71.47,587.79,74.31Zm-1.25,0c0-2.32-1.43-3.14-3.83-3.14h-2v6.4h2C585,77.59,586.54,76.85,586.54,74.33Z"/><path class="cls-3" d="M592.25,69.69a.87.87,0,1,1-.88-.84A.83.83,0,0,1,592.25,69.69ZM592,83.92h-1.16V73.45H592Z"/><path class="cls-3" d="M603.75,76.43v7.49h-1.16V76.59c0-1.72-.7-2.42-2-2.42s-2.38.88-3.24,2.16v7.59h-1.16V73.45h1l.12,1.78a4.16,4.16,0,0,1,3.5-2C602.73,73.23,603.75,74.41,603.75,76.43Z"/><path class="cls-3" d="M615.67,73.67a11.85,11.85,0,0,1-2.9.3,2.9,2.9,0,0,1,1.78,2.84c0,2-1.42,3.44-3.78,3.44a4.14,4.14,0,0,1-1.36-.2,1.41,1.41,0,0,0-.8,1.2c0,.63.4,1.08,1.66,1.08H612c2.08,0,3.36,1.13,3.36,2.69,0,1.88-1.48,3-4.54,3s-4.36-.92-4.36-3h1.08c0,1.46.78,2,3.28,2s3.36-.74,3.36-2-.88-1.75-2.36-1.75h-1.7c-1.74,0-2.58-.83-2.58-1.83a2.16,2.16,0,0,1,1.14-1.79,3,3,0,0,1-1.76-2.94,3.51,3.51,0,0,1,3.84-3.54c2.8,0,3.56-.26,4.58-.68Zm-7.58,3.1a2.44,2.44,0,0,0,2.64,2.64,2.64,2.64,0,1,0,0-5.28A2.42,2.42,0,0,0,608.09,76.77Z"/><path class="cls-3" d="M631.92,74.31c0,3.08-2.15,4.26-5.13,4.26h-2v5.35h-1.2V70.21h3.22C630,70.21,631.92,71.47,631.92,74.31Zm-1.27,0c0-2.32-1.42-3.14-3.82-3.14h-2v6.4h2C629.07,77.59,630.65,76.85,630.65,74.33Z"/><path class="cls-3" d="M642.35,78.65c0,3.39-1.68,5.49-4.44,5.49s-4.42-2.09-4.42-5.45,1.7-5.46,4.44-5.46S642.35,75.23,642.35,78.65Zm-7.62,0c0,2.94,1.18,4.47,3.18,4.47s3.22-1.5,3.22-4.51-1.18-4.44-3.2-4.44S634.73,75.69,634.73,78.69Z"/><path class="cls-3" d="M653.29,76.43v7.49h-1.16V76.59c0-1.72-.7-2.42-2-2.42s-2.38.88-3.24,2.16v7.59h-1.16V73.45h1l.12,1.78a4.16,4.16,0,0,1,3.5-2C652.27,73.23,653.29,74.41,653.29,76.43Z"/><path class="cls-3" d="M665.21,73.67a11.91,11.91,0,0,1-2.9.3,2.9,2.9,0,0,1,1.78,2.84c0,2-1.42,3.44-3.78,3.44a4.14,4.14,0,0,1-1.36-.2,1.41,1.41,0,0,0-.8,1.2c0,.63.4,1.08,1.66,1.08h1.7c2.08,0,3.37,1.13,3.37,2.69,0,1.88-1.49,3-4.55,3S656,87.1,656,85h1.08c0,1.46.78,2,3.28,2s3.36-.74,3.36-2-.88-1.75-2.36-1.75h-1.7c-1.74,0-2.58-.83-2.58-1.83a2.16,2.16,0,0,1,1.14-1.79,3,3,0,0,1-1.76-2.94,3.51,3.51,0,0,1,3.84-3.54c2.8,0,3.56-.26,4.58-.68Zm-7.58,3.1a2.44,2.44,0,0,0,2.64,2.64,2.64,2.64,0,1,0,0-5.28A2.42,2.42,0,0,0,657.63,76.77Z"/></g></g></svg>