<svg xmlns="http://www.w3.org/2000/svg" xmlns:xlink="http://www.w3.org/1999/xlink" viewBox="0 0 767 100.07"><defs><style>.cls-1{fill:none;}.cls-2{clip-path:url(#clip-path);}.cls-3{fill:#bdbbac;}.cls-4{clip-path:url(#clip-path-2);}.cls-5{opacity:0.2;}.cls-6{clip-path:url(#clip-path-3);}.cls-7{clip-path:url(#clip-path-4);}.cls-8{clip-path:url(#clip-path-5);}.cls-9{clip-path:url(#clip-path-6);}.cls-10{clip-path:url(#clip-path-7);}.cls-11{clip-path:url(#clip-path-8);}.cls-12{clip-path:url(#clip-path-9);}.cls-13{clip-path:url(#clip-path-10);}</style><clipPath id="clip-path"><rect class="cls-1" x="535.58" y="10.22" width="34.83" height="24.01"/></clipPath><clipPath id="clip-path-2"><rect class="cls-1" x="534.79" y="28.33" width="36.4" height="54.17"/></clipPath><clipPath id="clip-path-3"><rect class="cls-1" x="196.58" y="10.37" width="34.83" height="23.91"/></clipPath><clipPath id="clip-path-4"><rect class="cls-1" x="195.8" y="28.4" width="36.4" height="53.96"/></clipPath><clipPath id="clip-path-5"><rect class="cls-1" x="366.08" y="10.22" width="34.83" height="24.01"/></clipPath><clipPath id="clip-path-6"><rect class="cls-1" x="365.3" y="28.33" width="36.4" height="54.17"/></clipPath><clipPath id="clip-path-7"><rect class="cls-1" x="27.59" y="13.23" width="34.83" height="24.01"/></clipPath><clipPath id="clip-path-8"><rect class="cls-1" x="26.8" y="31.34" width="36.4" height="54.17"/></clipPath><clipPath id="clip-path-9"><rect class="cls-1" x="705.08" y="10.22" width="34.83" height="24.01"/></clipPath><clipPath id="clip-path-10"><rect class="cls-1" x="704.29" y="28.33" width="36.4" height="54.17"/></clipPath></defs><title>Element 7</title><g id="Ebene_2" data-name="Ebene 2"><g id="Ebene_1-2" data-name="Ebene 1"><g id="Ebene_2-2" data-name="Ebene 2"><g id="Ebene_1-2-2" data-name="Ebene 1-2"><rect width="767" height="100.06"/><rect y="0.01" width="767" height="100.06"/><g class="cls-2"><path class="cls-3" d="M553,33.09a7.26,7.26,0,0,0,7.08-7.42,7.09,7.09,0,0,0-14.17-.48,3.84,3.84,0,0,0,0,.48A7.27,7.27,0,0,0,553,33.09"/></g><g class="cls-4"><path class="cls-3" d="M554.91,36.37h-3.82a6.62,6.62,0,0,0-3.85,2l-.16.16a7.79,7.79,0,0,0-2,4.77v6.9a39.85,39.85,0,0,0,.46,5.57l2.53,15c.25,1.51-.32,2.74-1.27,2.74s-1.72,1.26-1.72,2.78v2.31a2.61,2.61,0,0,0,2.38,2.78h11a2.61,2.61,0,0,0,2.39-2.78V76.28c0-1.52-.8-2.78-1.73-2.78s-1.51-1.23-1.26-2.74l2.53-15.05a41.43,41.43,0,0,0,.46-5.57V43.27a7.79,7.79,0,0,0-2-4.77l-.16-.16a6.65,6.65,0,0,0-3.85-2"/></g><g class="cls-5"><g class="cls-6"><path class="cls-3" d="M214,33.14a7.24,7.24,0,0,0,7.08-7.39,7.09,7.09,0,0,0-14.16-.67c0,.22,0,.45,0,.67A7.24,7.24,0,0,0,214,33.14"/></g></g><g class="cls-5"><g class="cls-7"><path class="cls-3" d="M215.91,36.41h-3.82a6.61,6.61,0,0,0-3.85,2l-.16.16a7.75,7.75,0,0,0-2,4.75v6.88a39.43,39.43,0,0,0,.46,5.54l2.53,14.91c.25,1.51-.32,2.73-1.27,2.73s-1.72,1.26-1.72,2.78v2.29a2.6,2.6,0,0,0,2.38,2.77h11a2.61,2.61,0,0,0,2.39-2.77V76.17c0-1.53-.8-2.78-1.73-2.78s-1.51-1.22-1.26-2.73l2.53-15a41,41,0,0,0,.46-5.54V43.28a7.75,7.75,0,0,0-2-4.75l-.16-.16a6.63,6.63,0,0,0-3.85-2"/></g></g><rect class="cls-3" y="46.57" width="767" height="5.6"/><g class="cls-5"><g class="cls-8"><path class="cls-3" d="M383.5,33.09a7.26,7.26,0,0,0,7.08-7.42A7.09,7.09,0,1,0,376.42,25c0,.22,0,.45,0,.67a7.26,7.26,0,0,0,7.08,7.42"/></g></g><g class="cls-5"><g class="cls-9"><path class="cls-3" d="M385.41,36.37h-3.82a6.62,6.62,0,0,0-3.85,2l-.16.16a7.79,7.79,0,0,0-1.95,4.77v6.9a39.85,39.85,0,0,0,.46,5.57l2.53,15c.25,1.51-.32,2.74-1.27,2.74s-1.72,1.26-1.72,2.78v2.31A2.61,2.61,0,0,0,378,81.33h11a2.61,2.61,0,0,0,2.39-2.78V76.28c0-1.52-.8-2.78-1.73-2.78s-1.51-1.23-1.26-2.74l2.53-15.05a41.43,41.43,0,0,0,.46-5.57V43.27a7.79,7.79,0,0,0-1.95-4.77l-.16-.16a6.65,6.65,0,0,0-3.85-2"/></g></g><g class="cls-5"><g class="cls-10"><path class="cls-3" d="M45,36.09a7.25,7.25,0,0,0,7.09-7.42A7.09,7.09,0,0,0,37.92,28c0,.23,0,.45,0,.67A7.25,7.25,0,0,0,45,36.09"/></g></g><g class="cls-5"><g class="cls-11"><path class="cls-3" d="M46.91,39.37H43.1a6.73,6.73,0,0,0-3.86,2l-.16.16a7.89,7.89,0,0,0-1.95,4.77v6.91a39.85,39.85,0,0,0,.47,5.56l2.52,15c.26,1.51-.31,2.75-1.26,2.75s-1.73,1.28-1.73,2.82v2.3a2.62,2.62,0,0,0,2.39,2.78h11a2.6,2.6,0,0,0,2.38-2.78v-2.3c0-1.53-.79-2.78-1.72-2.78s-1.52-1.25-1.27-2.79l2.53-15a38.37,38.37,0,0,0,.46-5.56V46.27a7.82,7.82,0,0,0-1.94-4.77l-.16-.15a6.62,6.62,0,0,0-3.86-2"/></g></g><g class="cls-5"><g class="cls-12"><path class="cls-3" d="M722.5,33.09a7.26,7.26,0,0,0,7.08-7.42A7.09,7.09,0,1,0,715.42,25c0,.22,0,.45,0,.67a7.26,7.26,0,0,0,7.08,7.42"/></g></g><g class="cls-5"><g class="cls-13"><path class="cls-3" d="M724.41,36.37h-3.82a6.62,6.62,0,0,0-3.85,2l-.16.16a7.79,7.79,0,0,0-2,4.77v6.9a39.85,39.85,0,0,0,.46,5.57l2.53,15c.25,1.51-.32,2.74-1.27,2.74s-1.72,1.26-1.72,2.78v2.31A2.61,2.61,0,0,0,717,81.33h11a2.61,2.61,0,0,0,2.39-2.78V76.28c0-1.52-.8-2.78-1.73-2.78s-1.51-1.23-1.26-2.74l2.53-15.05a41.43,41.43,0,0,0,.46-5.57V43.27a7.79,7.79,0,0,0-2-4.77l-.16-.16a6.65,6.65,0,0,0-3.85-2"/></g></g></g></g><path class="cls-3" d="M594.5,79h-5.76l-1.2,3.74h-1.22l4.58-13.71h1.5L597,82.77H595.7Zm-.32-1-2.54-8-2.56,8Z"/><path class="cls-3" d="M607.54,77.48c0,3.37-1.46,5.51-4,5.51a3.69,3.69,0,0,1-3-1.54l-.12,1.32h-1V68l1.16-.14v5.86a3.79,3.79,0,0,1,3.14-1.68C606.12,72.08,607.54,74,607.54,77.48Zm-1.24,0c0-3.08-1-4.44-2.82-4.44a3.47,3.47,0,0,0-2.9,1.8v5.51A3.3,3.3,0,0,0,603.34,82C605.2,82,606.3,80.53,606.3,77.48Z"/><path class="cls-3" d="M616.94,73.24l-.54.76a4.5,4.5,0,0,0-2.76-1c-1.38,0-2.32.68-2.32,1.76s.66,1.48,2.54,2c2.28.6,3.36,1.39,3.36,3.17,0,1.94-1.7,3-3.78,3a5.48,5.48,0,0,1-3.74-1.34l.64-.74a4.64,4.64,0,0,0,3.08,1.1c1.52,0,2.58-.72,2.58-2s-.58-1.71-2.76-2.32-3.12-1.4-3.12-2.86,1.5-2.74,3.48-2.74A5.14,5.14,0,0,1,616.94,73.24Z"/><path class="cls-3" d="M626.86,73.14l-.58.76a3.46,3.46,0,0,0-2.32-.82c-1.9,0-3.24,1.48-3.24,4.5S622,82,623.94,82a3.75,3.75,0,0,0,2.42-.88l.56.78a4.52,4.52,0,0,1-3,1.12c-2.68,0-4.44-2-4.44-5.39s1.74-5.52,4.42-5.52A4.19,4.19,0,0,1,626.86,73.14Z"/><path class="cls-3" d="M637.24,75.28v7.49h-1.16V75.44c0-1.7-.72-2.42-2-2.42-1.42,0-2.38.88-3.24,2.16v7.59H629.7V68l1.16-.14V74a4.15,4.15,0,0,1,3.46-2C636.2,72.08,637.24,73.3,637.24,75.28Z"/><path class="cls-3" d="M641.28,81V68l1.16-.14V81c0,.68.26,1,.84,1a1.71,1.71,0,0,0,.72-.14l.32.86a2.79,2.79,0,0,1-1.2.28A1.74,1.74,0,0,1,641.28,81Z"/><path class="cls-3" d="M654.4,82.77h-1l-.06-1.86A3.8,3.8,0,0,1,649.92,83c-1.88,0-3-1.14-3-3.2V72.3h1.16v7.37c0,1.66.7,2.36,2.06,2.36a3.59,3.59,0,0,0,3.06-2.14V72.3h1.16Z"/><path class="cls-3" d="M664.54,73.24,664,74a4.5,4.5,0,0,0-2.76-1c-1.38,0-2.32.68-2.32,1.76s.66,1.48,2.54,2c2.28.6,3.36,1.39,3.36,3.17,0,1.94-1.7,3-3.78,3a5.48,5.48,0,0,1-3.74-1.34l.64-.74A4.64,4.64,0,0,0,661,82c1.52,0,2.58-.72,2.58-2s-.58-1.71-2.76-2.32-3.12-1.4-3.12-2.86,1.5-2.74,3.48-2.74A5.14,5.14,0,0,1,664.54,73.24Z"/><path class="cls-3" d="M673.56,73.24,673,74a4.5,4.5,0,0,0-2.76-1c-1.38,0-2.32.68-2.32,1.76s.66,1.48,2.54,2c2.28.6,3.36,1.39,3.36,3.17,0,1.94-1.7,3-3.78,3a5.48,5.48,0,0,1-3.74-1.34l.64-.74A4.64,4.64,0,0,0,670,82c1.52,0,2.58-.72,2.58-2s-.58-1.71-2.76-2.32-3.12-1.4-3.12-2.86,1.5-2.74,3.48-2.74A5.14,5.14,0,0,1,673.56,73.24Z"/></g></g></svg>