<svg xmlns="http://www.w3.org/2000/svg" xmlns:xlink="http://www.w3.org/1999/xlink" viewBox="0 0 767 100.07"><defs><style>.cls-1{fill:none;}.cls-2{opacity:0.2;}.cls-3{clip-path:url(#clip-path);}.cls-4{fill:#bdbbac;}.cls-5{clip-path:url(#clip-path-2);}.cls-6{clip-path:url(#clip-path-3);}.cls-7{clip-path:url(#clip-path-4);}.cls-8{clip-path:url(#clip-path-5);}.cls-9{clip-path:url(#clip-path-6);}.cls-10{clip-path:url(#clip-path-7);}.cls-11{clip-path:url(#clip-path-8);}.cls-12{clip-path:url(#clip-path-9);}.cls-13{clip-path:url(#clip-path-10);}</style><clipPath id="clip-path"><rect class="cls-1" x="535.58" y="10.22" width="34.83" height="24.01"/></clipPath><clipPath id="clip-path-2"><rect class="cls-1" x="534.79" y="28.33" width="36.4" height="54.17"/></clipPath><clipPath id="clip-path-3"><rect class="cls-1" x="196.58" y="10.37" width="34.83" height="23.91"/></clipPath><clipPath id="clip-path-4"><rect class="cls-1" x="195.8" y="28.4" width="36.4" height="53.96"/></clipPath><clipPath id="clip-path-5"><rect class="cls-1" x="366.08" y="10.22" width="34.83" height="24.01"/></clipPath><clipPath id="clip-path-6"><rect class="cls-1" x="365.3" y="28.33" width="36.4" height="54.17"/></clipPath><clipPath id="clip-path-7"><rect class="cls-1" x="27.59" y="13.23" width="34.83" height="24.01"/></clipPath><clipPath id="clip-path-8"><rect class="cls-1" x="26.8" y="31.34" width="36.4" height="54.17"/></clipPath><clipPath id="clip-path-9"><rect class="cls-1" x="705.08" y="10.22" width="34.83" height="24.01"/></clipPath><clipPath id="clip-path-10"><rect class="cls-1" x="704.29" y="28.33" width="36.4" height="54.17"/></clipPath></defs><title>Element 5</title><g id="Ebene_2" data-name="Ebene 2"><g id="Ebene_1-2" data-name="Ebene 1"><g id="Ebene_2-2" data-name="Ebene 2"><g id="Ebene_1-2-2" data-name="Ebene 1-2"><rect width="767" height="100.06"/><rect y="0.01" width="767" height="100.06"/><g class="cls-2"><g class="cls-3"><path class="cls-4" d="M553,33.09a7.26,7.26,0,0,0,7.08-7.42,7.09,7.09,0,0,0-14.17-.48,3.84,3.84,0,0,0,0,.48A7.27,7.27,0,0,0,553,33.09"/></g></g><g class="cls-2"><g class="cls-5"><path class="cls-4" d="M554.91,36.37h-3.82a6.62,6.62,0,0,0-3.85,2l-.16.16a7.79,7.79,0,0,0-2,4.77v6.9a39.85,39.85,0,0,0,.46,5.57l2.53,15c.25,1.51-.32,2.74-1.27,2.74s-1.72,1.26-1.72,2.78v2.31a2.61,2.61,0,0,0,2.38,2.78h11a2.61,2.61,0,0,0,2.39-2.78V76.28c0-1.52-.8-2.78-1.73-2.78s-1.51-1.23-1.26-2.74l2.53-15.05a41.43,41.43,0,0,0,.46-5.57V43.27a7.79,7.79,0,0,0-2-4.77l-.16-.16a6.65,6.65,0,0,0-3.85-2"/></g></g><g class="cls-2"><g class="cls-6"><path class="cls-4" d="M214,33.14a7.24,7.24,0,0,0,7.08-7.39,7.09,7.09,0,0,0-14.16-.67c0,.22,0,.45,0,.67A7.24,7.24,0,0,0,214,33.14"/></g></g><g class="cls-2"><g class="cls-7"><path class="cls-4" d="M215.91,36.41h-3.82a6.61,6.61,0,0,0-3.85,2l-.16.16a7.75,7.75,0,0,0-2,4.75v6.88a39.43,39.43,0,0,0,.46,5.54l2.53,14.91c.25,1.51-.32,2.73-1.27,2.73s-1.72,1.26-1.72,2.78v2.29a2.6,2.6,0,0,0,2.38,2.77h11a2.61,2.61,0,0,0,2.39-2.77V76.17c0-1.53-.8-2.78-1.73-2.78s-1.51-1.22-1.26-2.73l2.53-15a41,41,0,0,0,.46-5.54V43.28a7.75,7.75,0,0,0-2-4.75l-.16-.16a6.63,6.63,0,0,0-3.85-2"/></g></g><rect class="cls-4" y="46.57" width="767" height="5.6"/><g class="cls-2"><g class="cls-8"><path class="cls-4" d="M383.5,33.09a7.26,7.26,0,0,0,7.08-7.42A7.09,7.09,0,1,0,376.42,25c0,.22,0,.45,0,.67a7.26,7.26,0,0,0,7.08,7.42"/></g></g><g class="cls-2"><g class="cls-9"><path class="cls-4" d="M385.41,36.37h-3.82a6.62,6.62,0,0,0-3.85,2l-.16.16a7.79,7.79,0,0,0-1.95,4.77v6.9a39.85,39.85,0,0,0,.46,5.57l2.53,15c.25,1.51-.32,2.74-1.27,2.74s-1.72,1.26-1.72,2.78v2.31A2.61,2.61,0,0,0,378,81.33h11a2.61,2.61,0,0,0,2.39-2.78V76.28c0-1.52-.8-2.78-1.73-2.78s-1.51-1.23-1.26-2.74l2.53-15.05a41.43,41.43,0,0,0,.46-5.57V43.27a7.79,7.79,0,0,0-1.95-4.77l-.16-.16a6.65,6.65,0,0,0-3.85-2"/></g></g><g class="cls-10"><path class="cls-4" d="M45,36.09a7.25,7.25,0,0,0,7.09-7.42A7.09,7.09,0,0,0,37.92,28c0,.23,0,.45,0,.67A7.25,7.25,0,0,0,45,36.09"/></g><g class="cls-11"><path class="cls-4" d="M46.91,39.37H43.1a6.73,6.73,0,0,0-3.86,2l-.16.16a7.89,7.89,0,0,0-1.95,4.77v6.91a39.85,39.85,0,0,0,.47,5.56l2.52,15c.26,1.51-.31,2.75-1.26,2.75s-1.73,1.28-1.73,2.82v2.3a2.62,2.62,0,0,0,2.39,2.78h11a2.6,2.6,0,0,0,2.38-2.78v-2.3c0-1.53-.79-2.78-1.72-2.78s-1.52-1.25-1.27-2.79l2.53-15a38.37,38.37,0,0,0,.46-5.56V46.27a7.82,7.82,0,0,0-1.94-4.77l-.16-.15a6.62,6.62,0,0,0-3.86-2"/></g><g class="cls-2"><g class="cls-12"><path class="cls-4" d="M722.5,33.09a7.26,7.26,0,0,0,7.08-7.42A7.09,7.09,0,1,0,715.42,25c0,.22,0,.45,0,.67a7.26,7.26,0,0,0,7.08,7.42"/></g></g><g class="cls-2"><g class="cls-13"><path class="cls-4" d="M724.41,36.37h-3.82a6.62,6.62,0,0,0-3.85,2l-.16.16a7.79,7.79,0,0,0-2,4.77v6.9a39.85,39.85,0,0,0,.46,5.57l2.53,15c.25,1.51-.32,2.74-1.27,2.74s-1.72,1.26-1.72,2.78v2.31A2.61,2.61,0,0,0,717,81.33h11a2.61,2.61,0,0,0,2.39-2.78V76.28c0-1.52-.8-2.78-1.73-2.78s-1.51-1.23-1.26-2.74l2.53-15.05a41.43,41.43,0,0,0,.46-5.57V43.27a7.79,7.79,0,0,0-2-4.77l-.16-.16a6.65,6.65,0,0,0-3.85-2"/></g></g></g></g><path class="cls-4" d="M83.88,79c0,2.63-1.92,3.81-4.92,3.81H75.22V69.06h3.06c3.12,0,5,1.1,5,3.42a2.88,2.88,0,0,1-2.52,3A3.21,3.21,0,0,1,83.88,79Zm-7.46-8.9v5h2.76c1.66,0,2.84-.92,2.84-2.52,0-1.84-1.32-2.5-3.62-2.5ZM82.64,79c0-2.08-1.46-2.92-3.32-2.92h-2.9v5.73H79C81.18,81.77,82.64,81,82.64,79Z"/><path class="cls-4" d="M94.46,82.17,94.2,83a1.82,1.82,0,0,1-1.62-1.76A3.6,3.6,0,0,1,89.32,83a3,3,0,0,1-3.24-3.12c0-2.2,1.66-3.39,4.34-3.39h2v-1c0-1.66-.68-2.4-2.42-2.4a8.52,8.52,0,0,0-2.84.6l-.3-.88a8.74,8.74,0,0,1,3.3-.7c2.38,0,3.42,1.18,3.42,3.32v5C93.58,81.61,93.9,82,94.46,82.17Zm-2-2V77.33H90.6c-2.1,0-3.28.81-3.28,2.48a2,2,0,0,0,2.2,2.24A3.17,3.17,0,0,0,92.42,80.21Z"/><path class="cls-4" d="M97.5,81V68l1.16-.14V81c0,.68.26,1,.84,1a1.71,1.71,0,0,0,.72-.14l.32.86a2.79,2.79,0,0,1-1.2.28A1.74,1.74,0,0,1,97.5,81Z"/><path class="cls-4" d="M103.18,81V68l1.16-.14V81c0,.68.26,1,.84,1a1.71,1.71,0,0,0,.72-.14l.32.86A2.79,2.79,0,0,1,105,83,1.74,1.74,0,0,1,103.18,81Z"/><path class="cls-4" d="M116.5,75.28v7.49h-1.16V75.44c0-1.7-.72-2.42-2-2.42-1.42,0-2.38.88-3.24,2.16v7.59H109V68l1.16-.14V74a4.15,4.15,0,0,1,3.46-2C115.46,72.08,116.5,73.3,116.5,75.28Z"/><path class="cls-4" d="M128,82.17l-.26.82a1.82,1.82,0,0,1-1.62-1.76A3.6,3.6,0,0,1,122.88,83a3,3,0,0,1-3.24-3.12c0-2.2,1.66-3.39,4.34-3.39h2v-1c0-1.66-.68-2.4-2.42-2.4a8.52,8.52,0,0,0-2.84.6l-.3-.88a8.74,8.74,0,0,1,3.3-.7c2.38,0,3.42,1.18,3.42,3.32v5C127.14,81.61,127.46,82,128,82.17Zm-2-2V77.33h-1.82c-2.1,0-3.28.81-3.28,2.48a2,2,0,0,0,2.2,2.24A3.17,3.17,0,0,0,126,80.21Z"/><path class="cls-4" d="M138.9,75.28v7.49h-1.16V75.44c0-1.72-.7-2.42-2-2.42s-2.38.88-3.24,2.16v7.59h-1.16V72.3h1l.12,1.78a4.16,4.16,0,0,1,3.5-2C137.88,72.08,138.9,73.26,138.9,75.28Z"/><path class="cls-4" d="M150.5,68V82.77h-1l-.14-1.6A3.5,3.5,0,0,1,146.22,83c-2.44,0-3.92-2.08-3.92-5.41s1.54-5.5,4.1-5.5a3.64,3.64,0,0,1,2.94,1.42V67.9Zm-1.16,12V74.62A3.26,3.26,0,0,0,146.6,73c-1.84,0-3.08,1.58-3.06,4.52S144.64,82,146.4,82A3.21,3.21,0,0,0,149.34,80.08Z"/><path class="cls-4" d="M154.64,81V68l1.16-.14V81c0,.68.26,1,.84,1a1.71,1.71,0,0,0,.72-.14l.32.86a2.79,2.79,0,0,1-1.2.28A1.74,1.74,0,0,1,154.64,81Z"/><path class="cls-4" d="M161.86,68.54a.87.87,0,1,1-.88-.84A.83.83,0,0,1,161.86,68.54Zm-.28,14.23h-1.16V72.3h1.16Z"/><path class="cls-4" d="M173.36,75.28v7.49H172.2V75.44c0-1.72-.7-2.42-2-2.42s-2.38.88-3.24,2.16v7.59h-1.16V72.3h1l.12,1.78a4.16,4.16,0,0,1,3.5-2C172.34,72.08,173.36,73.26,173.36,75.28Z"/><path class="cls-4" d="M185.28,72.52a11.91,11.91,0,0,1-2.9.3,2.9,2.9,0,0,1,1.78,2.84c0,2-1.42,3.45-3.78,3.45a4.42,4.42,0,0,1-1.36-.2,1.41,1.41,0,0,0-.8,1.2c0,.62.4,1.08,1.66,1.08h1.7c2.08,0,3.36,1.12,3.36,2.68,0,1.88-1.48,3-4.54,3S176,86,176,83.87h1.08c0,1.46.78,2,3.28,2s3.36-.74,3.36-2-.88-1.74-2.36-1.74h-1.7c-1.74,0-2.58-.84-2.58-1.84a2.15,2.15,0,0,1,1.14-1.78,3,3,0,0,1-1.76-2.95,3.51,3.51,0,0,1,3.84-3.54c2.8,0,3.56-.26,4.58-.68Zm-7.58,3.1a2.44,2.44,0,0,0,2.64,2.64,2.64,2.64,0,1,0,0-5.28A2.42,2.42,0,0,0,177.7,75.62Z"/></g></g></svg>