<svg xmlns="http://www.w3.org/2000/svg" xmlns:xlink="http://www.w3.org/1999/xlink" viewBox="0 0 767 100.07"><defs><style>.cls-1{fill:none;}.cls-2{opacity:0.2;}.cls-3{clip-path:url(#clip-path);}.cls-4{fill:#bdbbac;}.cls-5{clip-path:url(#clip-path-2);}.cls-6{clip-path:url(#clip-path-3);}.cls-7{clip-path:url(#clip-path-4);}.cls-8{clip-path:url(#clip-path-5);}.cls-9{clip-path:url(#clip-path-6);}.cls-10{clip-path:url(#clip-path-7);}.cls-11{clip-path:url(#clip-path-8);}.cls-12{clip-path:url(#clip-path-9);}.cls-13{clip-path:url(#clip-path-10);}</style><clipPath id="clip-path"><rect class="cls-1" x="535.58" y="10.22" width="34.83" height="24.01"/></clipPath><clipPath id="clip-path-2"><rect class="cls-1" x="534.79" y="28.33" width="36.4" height="54.17"/></clipPath><clipPath id="clip-path-3"><rect class="cls-1" x="196.58" y="10.37" width="34.83" height="23.91"/></clipPath><clipPath id="clip-path-4"><rect class="cls-1" x="195.8" y="28.4" width="36.4" height="53.96"/></clipPath><clipPath id="clip-path-5"><rect class="cls-1" x="366.08" y="10.22" width="34.83" height="24.01"/></clipPath><clipPath id="clip-path-6"><rect class="cls-1" x="365.3" y="28.33" width="36.4" height="54.17"/></clipPath><clipPath id="clip-path-7"><rect class="cls-1" x="27.59" y="13.23" width="34.83" height="24.01"/></clipPath><clipPath id="clip-path-8"><rect class="cls-1" x="26.8" y="31.34" width="36.4" height="54.17"/></clipPath><clipPath id="clip-path-9"><rect class="cls-1" x="705.08" y="10.22" width="34.83" height="24.01"/></clipPath><clipPath id="clip-path-10"><rect class="cls-1" x="704.29" y="28.33" width="36.4" height="54.17"/></clipPath></defs><title>Element 6</title><g id="Ebene_2" data-name="Ebene 2"><g id="Ebene_1-2" data-name="Ebene 1"><g id="Ebene_2-2" data-name="Ebene 2"><g id="Ebene_1-2-2" data-name="Ebene 1-2"><rect width="767" height="100.06"/><rect y="0.01" width="767" height="100.06"/><g class="cls-2"><g class="cls-3"><path class="cls-4" d="M553,33.09a7.26,7.26,0,0,0,7.08-7.42,7.09,7.09,0,0,0-14.17-.48,3.84,3.84,0,0,0,0,.48A7.27,7.27,0,0,0,553,33.09"/></g></g><g class="cls-2"><g class="cls-5"><path class="cls-4" d="M554.91,36.37h-3.82a6.62,6.62,0,0,0-3.85,2l-.16.16a7.79,7.79,0,0,0-2,4.77v6.9a39.85,39.85,0,0,0,.46,5.57l2.53,15c.25,1.51-.32,2.74-1.27,2.74s-1.72,1.26-1.72,2.78v2.31a2.61,2.61,0,0,0,2.38,2.78h11a2.61,2.61,0,0,0,2.39-2.78V76.28c0-1.52-.8-2.78-1.73-2.78s-1.51-1.23-1.26-2.74l2.53-15.05a41.43,41.43,0,0,0,.46-5.57V43.27a7.79,7.79,0,0,0-2-4.77l-.16-.16a6.65,6.65,0,0,0-3.85-2"/></g></g><g class="cls-6"><path class="cls-4" d="M214,33.14a7.24,7.24,0,0,0,7.08-7.39,7.09,7.09,0,0,0-14.16-.67c0,.22,0,.45,0,.67A7.24,7.24,0,0,0,214,33.14"/></g><g class="cls-7"><path class="cls-4" d="M215.91,36.41h-3.82a6.61,6.61,0,0,0-3.85,2l-.16.16a7.75,7.75,0,0,0-2,4.75v6.88a39.43,39.43,0,0,0,.46,5.54l2.53,14.91c.25,1.51-.32,2.73-1.27,2.73s-1.72,1.26-1.72,2.78v2.29a2.6,2.6,0,0,0,2.38,2.77h11a2.61,2.61,0,0,0,2.39-2.77V76.17c0-1.53-.8-2.78-1.73-2.78s-1.51-1.22-1.26-2.73l2.53-15a41,41,0,0,0,.46-5.54V43.28a7.75,7.75,0,0,0-2-4.75l-.16-.16a6.63,6.63,0,0,0-3.85-2"/></g><rect class="cls-4" y="46.57" width="767" height="5.6"/><g class="cls-2"><g class="cls-8"><path class="cls-4" d="M383.5,33.09a7.26,7.26,0,0,0,7.08-7.42A7.09,7.09,0,1,0,376.42,25c0,.22,0,.45,0,.67a7.26,7.26,0,0,0,7.08,7.42"/></g></g><g class="cls-2"><g class="cls-9"><path class="cls-4" d="M385.41,36.37h-3.82a6.62,6.62,0,0,0-3.85,2l-.16.16a7.79,7.79,0,0,0-1.95,4.77v6.9a39.85,39.85,0,0,0,.46,5.57l2.53,15c.25,1.51-.32,2.74-1.27,2.74s-1.72,1.26-1.72,2.78v2.31A2.61,2.61,0,0,0,378,81.33h11a2.61,2.61,0,0,0,2.39-2.78V76.28c0-1.52-.8-2.78-1.73-2.78s-1.51-1.23-1.26-2.74l2.53-15.05a41.43,41.43,0,0,0,.46-5.57V43.27a7.79,7.79,0,0,0-1.95-4.77l-.16-.16a6.65,6.65,0,0,0-3.85-2"/></g></g><g class="cls-2"><g class="cls-10"><path class="cls-4" d="M45,36.09a7.25,7.25,0,0,0,7.09-7.42A7.09,7.09,0,0,0,37.92,28c0,.23,0,.45,0,.67A7.25,7.25,0,0,0,45,36.09"/></g></g><g class="cls-2"><g class="cls-11"><path class="cls-4" d="M46.91,39.37H43.1a6.73,6.73,0,0,0-3.86,2l-.16.16a7.89,7.89,0,0,0-1.95,4.77v6.91a39.85,39.85,0,0,0,.47,5.56l2.52,15c.26,1.51-.31,2.75-1.26,2.75s-1.73,1.28-1.73,2.82v2.3a2.62,2.62,0,0,0,2.39,2.78h11a2.6,2.6,0,0,0,2.38-2.78v-2.3c0-1.53-.79-2.78-1.72-2.78s-1.52-1.25-1.27-2.79l2.53-15a38.37,38.37,0,0,0,.46-5.56V46.27a7.82,7.82,0,0,0-1.94-4.77l-.16-.15a6.62,6.62,0,0,0-3.86-2"/></g></g><g class="cls-2"><g class="cls-12"><path class="cls-4" d="M722.5,33.09a7.26,7.26,0,0,0,7.08-7.42A7.09,7.09,0,1,0,715.42,25c0,.22,0,.45,0,.67a7.26,7.26,0,0,0,7.08,7.42"/></g></g><g class="cls-2"><g class="cls-13"><path class="cls-4" d="M724.41,36.37h-3.82a6.62,6.62,0,0,0-3.85,2l-.16.16a7.79,7.79,0,0,0-2,4.77v6.9a39.85,39.85,0,0,0,.46,5.57l2.53,15c.25,1.51-.32,2.74-1.27,2.74s-1.72,1.26-1.72,2.78v2.31A2.61,2.61,0,0,0,717,81.33h11a2.61,2.61,0,0,0,2.39-2.78V76.28c0-1.52-.8-2.78-1.73-2.78s-1.51-1.23-1.26-2.74l2.53-15.05a41.43,41.43,0,0,0,.46-5.57V43.27a7.79,7.79,0,0,0-2-4.77l-.16-.16a6.65,6.65,0,0,0-3.85-2"/></g></g></g></g><path class="cls-4" d="M247.14,82.77H245.8l-4.48-13.71h1.3l3.86,12.47,3.88-12.47h1.24Z"/><path class="cls-4" d="M260.92,78h-7c.14,2.85,1.46,4,3.26,4A4.35,4.35,0,0,0,260,81l.54.74A5.16,5.16,0,0,1,257.14,83c-2.76,0-4.44-2-4.44-5.36s1.62-5.55,4.18-5.55c2.72,0,4.08,2,4.08,5.06C261,77.46,260.94,77.79,260.92,78Zm-1.1-1.2c0-2.28-.92-3.74-2.9-3.74-1.64,0-2.86,1.2-3,4h5.88Z"/><path class="cls-4" d="M269.36,72.2l-.22,1.1a3.31,3.31,0,0,0-.92-.12c-1.46,0-2.24,1-2.8,3.18v6.41h-1.16V72.3h1l.1,2.34c.56-1.72,1.5-2.56,3-2.56A3.91,3.91,0,0,1,269.36,72.2Z"/><path class="cls-4" d="M278.4,82.17l-.26.82a1.82,1.82,0,0,1-1.62-1.76A3.6,3.6,0,0,1,273.26,83,3,3,0,0,1,270,79.87c0-2.2,1.66-3.39,4.34-3.39h2v-1c0-1.66-.68-2.4-2.42-2.4a8.52,8.52,0,0,0-2.84.6l-.3-.88a8.74,8.74,0,0,1,3.3-.7c2.38,0,3.42,1.18,3.42,3.32v5C277.52,81.61,277.84,82,278.4,82.17Zm-2-2V77.33h-1.82c-2.1,0-3.28.81-3.28,2.48a2,2,0,0,0,2.2,2.24A3.17,3.17,0,0,0,276.36,80.21Z"/><path class="cls-4" d="M286.84,72.2l-.22,1.1a3.31,3.31,0,0,0-.92-.12c-1.46,0-2.24,1-2.8,3.18v6.41h-1.16V72.3h1l.1,2.34c.56-1.72,1.5-2.56,3-2.56A3.91,3.91,0,0,1,286.84,72.2Z"/><path class="cls-4" d="M297.32,77.48c0,3.37-1.46,5.51-4,5.51a3.69,3.69,0,0,1-3-1.54l-.12,1.32h-1V68l1.16-.14v5.86a3.79,3.79,0,0,1,3.14-1.68C295.9,72.08,297.32,74,297.32,77.48Zm-1.24,0c0-3.08-1-4.44-2.82-4.44a3.47,3.47,0,0,0-2.9,1.8v5.51A3.3,3.3,0,0,0,293.12,82C295,82,296.08,80.53,296.08,77.48Z"/><path class="cls-4" d="M308.2,78h-7c.14,2.85,1.46,4,3.26,4a4.35,4.35,0,0,0,2.82-1l.54.74A5.16,5.16,0,0,1,304.42,83c-2.76,0-4.44-2-4.44-5.36s1.62-5.55,4.18-5.55c2.72,0,4.08,2,4.08,5.06C308.24,77.46,308.22,77.79,308.2,78Zm-1.1-1.2c0-2.28-.92-3.74-2.9-3.74-1.64,0-2.86,1.2-3,4h5.88Z"/><path class="cls-4" d="M313,68.54a.87.87,0,1,1-.88-.84A.83.83,0,0,1,313,68.54Zm-.28,14.23h-1.16V72.3h1.16Z"/><path class="cls-4" d="M321.7,82.33a3.91,3.91,0,0,1-2.2.66c-1.58,0-2.56-.94-2.56-2.76v-7h-1.76V72.3h1.76V69.8l1.16-.14V72.3h2.7l-.14.94H318.1v6.93c0,1.22.48,1.82,1.54,1.82a3.09,3.09,0,0,0,1.6-.46Z"/><path class="cls-4" d="M331.1,82.77h-1L330,80.91A3.8,3.8,0,0,1,326.62,83c-1.88,0-3-1.14-3-3.2V72.3h1.16v7.37c0,1.66.7,2.36,2.06,2.36a3.59,3.59,0,0,0,3.06-2.14V72.3h1.16Z"/><path class="cls-4" d="M342.88,75.28v7.49h-1.16V75.44c0-1.72-.7-2.42-2-2.42s-2.38.88-3.24,2.16v7.59h-1.16V72.3h1l.12,1.78a4.16,4.16,0,0,1,3.5-2C341.86,72.08,342.88,73.26,342.88,75.28Z"/><path class="cls-4" d="M354.8,72.52a11.91,11.91,0,0,1-2.9.3,2.9,2.9,0,0,1,1.78,2.84c0,2-1.42,3.45-3.78,3.45a4.42,4.42,0,0,1-1.36-.2,1.41,1.41,0,0,0-.8,1.2c0,.62.4,1.08,1.66,1.08h1.7c2.08,0,3.36,1.12,3.36,2.68,0,1.88-1.48,3-4.54,3s-4.36-.92-4.36-3h1.08c0,1.46.78,2,3.28,2s3.36-.74,3.36-2-.88-1.74-2.36-1.74h-1.7c-1.74,0-2.58-.84-2.58-1.84a2.15,2.15,0,0,1,1.14-1.78A3,3,0,0,1,346,75.62a3.51,3.51,0,0,1,3.84-3.54c2.8,0,3.56-.26,4.58-.68Zm-7.58,3.1a2.44,2.44,0,0,0,2.64,2.64,2.64,2.64,0,1,0,0-5.28A2.42,2.42,0,0,0,347.22,75.62Z"/></g></g></svg>