<svg xmlns="http://www.w3.org/2000/svg" xmlns:xlink="http://www.w3.org/1999/xlink" viewBox="0 0 767 100"><defs><style>.cls-1{fill:none;}.cls-14,.cls-2{fill:#bdbbac;}.cls-14,.cls-3{opacity:0.2;}.cls-4{clip-path:url(#clip-path);}.cls-5{clip-path:url(#clip-path-2);}.cls-6{opacity:0.2;}.cls-7{clip-path:url(#clip-path-3);}.cls-8{fill:#f7f0c4;}.cls-9{clip-path:url(#clip-path-4);}.cls-10{clip-path:url(#clip-path-5);}.cls-11{clip-path:url(#clip-path-6);}.cls-12{clip-path:url(#clip-path-7);}.cls-13{clip-path:url(#clip-path-8);}.cls-15{font-size:13.55px;fill:#c6c5a9;font-family:FiraSans-Light, Fira Sans;}.cls-16{letter-spacing:-0.03em;}</style><clipPath id="clip-path"><rect class="cls-1" x="9.05" y="23.33" width="25.71" height="17.72"/></clipPath><clipPath id="clip-path-2"><rect class="cls-1" x="8.47" y="36.7" width="26.87" height="39.99"/></clipPath><clipPath id="clip-path-3"><rect class="cls-1" x="733.21" y="23.33" width="25.71" height="17.72"/></clipPath><clipPath id="clip-path-4"><rect class="cls-1" x="732.63" y="36.7" width="26.87" height="39.99"/></clipPath><clipPath id="clip-path-5"><rect class="cls-1" x="566.58" y="22.54" width="25.71" height="17.72"/></clipPath><clipPath id="clip-path-6"><rect class="cls-1" x="566" y="35.91" width="26.87" height="39.99"/></clipPath><clipPath id="clip-path-7"><rect class="cls-1" x="370.01" y="23.33" width="25.71" height="17.72"/></clipPath><clipPath id="clip-path-8"><rect class="cls-1" x="369.43" y="36.7" width="26.87" height="39.99"/></clipPath></defs><title>Element 3</title><g id="Ebene_2" data-name="Ebene 2"><g id="Ebene_1-2" data-name="Ebene 1"><rect width="767" height="100"/><rect class="cls-2" y="47.86" width="767" height="3"/><rect class="cls-1" y="28.46" width="767" height="53.02"/><g class="cls-3"><g class="cls-4"><path class="cls-2" d="M21.91,40.2a5.48,5.48,0,0,0,0-10.94,5.48,5.48,0,0,0,0,10.94"/></g></g><g class="cls-3"><g class="cls-5"><path class="cls-2" d="M23.31,42.63H20.5a4.93,4.93,0,0,0-2.85,1.46l-.11.12a5.71,5.71,0,0,0-1.44,3.51v5.1a29.29,29.29,0,0,0,.34,4.08L18.31,68c.18,1.11-.24,2-.94,2s-1.27.92-1.27,2v1.71a1.93,1.93,0,0,0,1.76,2H26a1.94,1.94,0,0,0,1.77-2V72.08c0-1.13-.58-2-1.28-2s-1.12-.91-.93-2L27.38,56.9a29.29,29.29,0,0,0,.34-4.08v-5.1a5.76,5.76,0,0,0-1.44-3.51l-.12-.12a4.93,4.93,0,0,0-2.85-1.46"/></g></g><g class="cls-6"><g class="cls-7"><path class="cls-8" d="M746.07,40.2a5.48,5.48,0,1,0-5.23-5.47,5.35,5.35,0,0,0,5.23,5.47"/></g></g><g class="cls-6"><g class="cls-9"><path class="cls-8" d="M747.48,42.63h-2.82a5,5,0,0,0-2.85,1.46l-.11.12a5.71,5.71,0,0,0-1.44,3.51v5.1a29.29,29.29,0,0,0,.34,4.08L742.47,68c.18,1.11-.24,2-.94,2s-1.27.92-1.27,2v1.71a1.93,1.93,0,0,0,1.76,2h8.1a1.93,1.93,0,0,0,1.76-2V72.08c0-1.13-.57-2-1.28-2s-1.12-.91-.93-2l1.87-11.11a29.29,29.29,0,0,0,.34-4.08v-5.1a5.76,5.76,0,0,0-1.44-3.51l-.12-.12a4.93,4.93,0,0,0-2.84-1.46"/></g></g><g class="cls-6"><g class="cls-10"><path class="cls-8" d="M579.43,39.41a5.48,5.48,0,1,0-5.23-5.47,5.35,5.35,0,0,0,5.23,5.47"/></g></g><g class="cls-6"><g class="cls-11"><path class="cls-8" d="M580.84,41.83H578a4.89,4.89,0,0,0-2.85,1.47l-.12.11a5.82,5.82,0,0,0-1.44,3.52V52A30.75,30.75,0,0,0,574,56.1l1.87,11.11c.19,1.12-.23,2-.93,2s-1.28.92-1.28,2.05V73A1.93,1.93,0,0,0,575.39,75h8.09A1.92,1.92,0,0,0,585.24,73v-1.7c0-1.13-.57-2.05-1.27-2.05s-1.12-.91-.94-2L584.9,56.1a29.15,29.15,0,0,0,.34-4.07v-5.1a5.76,5.76,0,0,0-1.44-3.52l-.11-.11a4.89,4.89,0,0,0-2.85-1.47"/></g></g><g class="cls-12"><path class="cls-2" d="M382.86,40.2a5.48,5.48,0,1,0-5.23-5.47,5.36,5.36,0,0,0,5.23,5.47"/></g><g class="cls-13"><path class="cls-2" d="M384.27,42.63h-2.81a4.93,4.93,0,0,0-2.85,1.46l-.12.12a5.76,5.76,0,0,0-1.44,3.51v5.1a30.9,30.9,0,0,0,.34,4.08L379.26,68c.19,1.11-.23,2-.93,2s-1.28.92-1.28,2v1.71a1.94,1.94,0,0,0,1.77,2h8.09a1.94,1.94,0,0,0,1.77-2V72.08c0-1.13-.58-2-1.28-2s-1.12-.91-.93-2l1.87-11.11a30.9,30.9,0,0,0,.34-4.08v-5.1a5.76,5.76,0,0,0-1.44-3.51l-.12-.12a4.93,4.93,0,0,0-2.85-1.46"/></g><path class="cls-14" d="M201.54,40.2a5.48,5.48,0,1,0-5.23-5.47,5.35,5.35,0,0,0,5.23,5.47"/><path class="cls-14" d="M203,42.63h-2.82a5,5,0,0,0-2.85,1.46l-.11.12a5.76,5.76,0,0,0-1.44,3.51v5.1a29.29,29.29,0,0,0,.34,4.08L197.94,68c.19,1.11-.23,2-.94,2s-1.27.92-1.27,2v1.71a1.93,1.93,0,0,0,1.76,2h8.1a1.93,1.93,0,0,0,1.76-2V72.08c0-1.13-.57-2-1.27-2s-1.13-.91-.94-2L207,56.9a29.29,29.29,0,0,0,.34-4.08v-5.1a5.76,5.76,0,0,0-1.44-3.51l-.11-.12A5,5,0,0,0,203,42.63"/><rect class="cls-1" y="28.47" width="767" height="53.02"/><text class="cls-15" transform="translate(400.17 76.04)"><tspan class="cls-16">T</tspan><tspan x="6.31" y="0">rick 3</tspan></text></g></g></svg>