<svg xmlns="http://www.w3.org/2000/svg" xmlns:xlink="http://www.w3.org/1999/xlink" viewBox="0 0 767 100.07"><defs><style>.cls-1{fill:none;}.cls-2{opacity:0.2;}.cls-3{clip-path:url(#clip-path);}.cls-4{fill:#bdbbac;}.cls-5{clip-path:url(#clip-path-2);}.cls-6{clip-path:url(#clip-path-3);}.cls-7{clip-path:url(#clip-path-4);}.cls-8{clip-path:url(#clip-path-5);}.cls-9{clip-path:url(#clip-path-6);}.cls-10{clip-path:url(#clip-path-7);}.cls-11{clip-path:url(#clip-path-8);}.cls-12{clip-path:url(#clip-path-9);}.cls-13{clip-path:url(#clip-path-10);}</style><clipPath id="clip-path"><rect class="cls-1" x="535.58" y="10.22" width="34.83" height="24.01"/></clipPath><clipPath id="clip-path-2"><rect class="cls-1" x="534.79" y="28.33" width="36.4" height="54.17"/></clipPath><clipPath id="clip-path-3"><rect class="cls-1" x="196.58" y="10.37" width="34.83" height="23.91"/></clipPath><clipPath id="clip-path-4"><rect class="cls-1" x="195.8" y="28.4" width="36.4" height="53.96"/></clipPath><clipPath id="clip-path-5"><rect class="cls-1" x="366.08" y="10.22" width="34.83" height="24.01"/></clipPath><clipPath id="clip-path-6"><rect class="cls-1" x="365.3" y="28.33" width="36.4" height="54.17"/></clipPath><clipPath id="clip-path-7"><rect class="cls-1" x="27.59" y="13.23" width="34.83" height="24.01"/></clipPath><clipPath id="clip-path-8"><rect class="cls-1" x="26.8" y="31.34" width="36.4" height="54.17"/></clipPath><clipPath id="clip-path-9"><rect class="cls-1" x="705.08" y="10.22" width="34.83" height="24.01"/></clipPath><clipPath id="clip-path-10"><rect class="cls-1" x="704.29" y="28.33" width="36.4" height="54.17"/></clipPath></defs><title>Element 4</title><g id="Ebene_2" data-name="Ebene 2"><g id="Ebene_1-2" data-name="Ebene 1"><g id="Ebene_2-2" data-name="Ebene 2"><g id="Ebene_1-2-2" data-name="Ebene 1-2"><rect width="767" height="100.06"/><rect y="0.01" width="767" height="100.06"/><g class="cls-2"><g class="cls-3"><path class="cls-4" d="M553,33.09a7.26,7.26,0,0,0,7.08-7.42,7.09,7.09,0,0,0-14.17-.48,3.84,3.84,0,0,0,0,.48A7.27,7.27,0,0,0,553,33.09"/></g></g><g class="cls-2"><g class="cls-5"><path class="cls-4" d="M554.91,36.37h-3.82a6.62,6.62,0,0,0-3.85,2l-.16.16a7.79,7.79,0,0,0-2,4.77v6.9a39.85,39.85,0,0,0,.46,5.57l2.53,15c.25,1.51-.32,2.74-1.27,2.74s-1.72,1.26-1.72,2.78v2.31a2.61,2.61,0,0,0,2.38,2.78h11a2.61,2.61,0,0,0,2.39-2.78V76.28c0-1.52-.8-2.78-1.73-2.78s-1.51-1.23-1.26-2.74l2.53-15.05a41.43,41.43,0,0,0,.46-5.57V43.27a7.79,7.79,0,0,0-2-4.77l-.16-.16a6.65,6.65,0,0,0-3.85-2"/></g></g><g class="cls-2"><g class="cls-6"><path class="cls-4" d="M214,33.14a7.24,7.24,0,0,0,7.08-7.39,7.09,7.09,0,0,0-14.16-.67c0,.22,0,.45,0,.67A7.24,7.24,0,0,0,214,33.14"/></g></g><g class="cls-2"><g class="cls-7"><path class="cls-4" d="M215.91,36.41h-3.82a6.61,6.61,0,0,0-3.85,2l-.16.16a7.75,7.75,0,0,0-2,4.75v6.88a39.43,39.43,0,0,0,.46,5.54l2.53,14.91c.25,1.51-.32,2.73-1.27,2.73s-1.72,1.26-1.72,2.78v2.29a2.6,2.6,0,0,0,2.38,2.77h11a2.61,2.61,0,0,0,2.39-2.77V76.17c0-1.53-.8-2.78-1.73-2.78s-1.51-1.22-1.26-2.73l2.53-15a41,41,0,0,0,.46-5.54V43.28a7.75,7.75,0,0,0-2-4.75l-.16-.16a6.63,6.63,0,0,0-3.85-2"/></g></g><rect class="cls-4" y="46.57" width="767" height="5.6"/><g class="cls-2"><g class="cls-8"><path class="cls-4" d="M383.5,33.09a7.26,7.26,0,0,0,7.08-7.42A7.09,7.09,0,1,0,376.42,25c0,.22,0,.45,0,.67a7.26,7.26,0,0,0,7.08,7.42"/></g></g><g class="cls-2"><g class="cls-9"><path class="cls-4" d="M385.41,36.37h-3.82a6.62,6.62,0,0,0-3.85,2l-.16.16a7.79,7.79,0,0,0-1.95,4.77v6.9a39.85,39.85,0,0,0,.46,5.57l2.53,15c.25,1.51-.32,2.74-1.27,2.74s-1.72,1.26-1.72,2.78v2.31A2.61,2.61,0,0,0,378,81.33h11a2.61,2.61,0,0,0,2.39-2.78V76.28c0-1.52-.8-2.78-1.73-2.78s-1.51-1.23-1.26-2.74l2.53-15.05a41.43,41.43,0,0,0,.46-5.57V43.27a7.79,7.79,0,0,0-1.95-4.77l-.16-.16a6.65,6.65,0,0,0-3.85-2"/></g></g><g class="cls-2"><g class="cls-10"><path class="cls-4" d="M45,36.09a7.25,7.25,0,0,0,7.09-7.42A7.09,7.09,0,0,0,37.92,28c0,.23,0,.45,0,.67A7.25,7.25,0,0,0,45,36.09"/></g></g><g class="cls-2"><g class="cls-11"><path class="cls-4" d="M46.91,39.37H43.1a6.73,6.73,0,0,0-3.86,2l-.16.16a7.89,7.89,0,0,0-1.95,4.77v6.91a39.85,39.85,0,0,0,.47,5.56l2.52,15c.26,1.51-.31,2.75-1.26,2.75s-1.73,1.28-1.73,2.82v2.3a2.62,2.62,0,0,0,2.39,2.78h11a2.6,2.6,0,0,0,2.38-2.78v-2.3c0-1.53-.79-2.78-1.72-2.78s-1.52-1.25-1.27-2.79l2.53-15a38.37,38.37,0,0,0,.46-5.56V46.27a7.82,7.82,0,0,0-1.94-4.77l-.16-.15a6.62,6.62,0,0,0-3.86-2"/></g></g><g class="cls-12"><path class="cls-4" d="M722.5,33.09a7.26,7.26,0,0,0,7.08-7.42A7.09,7.09,0,1,0,715.42,25c0,.22,0,.45,0,.67a7.26,7.26,0,0,0,7.08,7.42"/></g><g class="cls-13"><path class="cls-4" d="M724.41,36.37h-3.82a6.62,6.62,0,0,0-3.85,2l-.16.16a7.79,7.79,0,0,0-2,4.77v6.9a39.85,39.85,0,0,0,.46,5.57l2.53,15c.25,1.51-.32,2.74-1.27,2.74s-1.72,1.26-1.72,2.78v2.31A2.61,2.61,0,0,0,717,81.33h11a2.61,2.61,0,0,0,2.39-2.78V76.28c0-1.52-.8-2.78-1.73-2.78s-1.51-1.23-1.26-2.74l2.53-15.05a41.43,41.43,0,0,0,.46-5.57V43.27a7.79,7.79,0,0,0-2-4.77l-.16-.16a6.65,6.65,0,0,0-3.85-2"/></g></g></g><path class="cls-4" d="M627.52,71.51l-.7.76a4.52,4.52,0,0,0-3.2-1.26c-1.68,0-2.84.88-2.84,2.32s.74,2,3.2,2.78,4,1.64,4,4.06-1.78,4-4.54,4A6.06,6.06,0,0,1,619,82.41l.68-.76a5.25,5.25,0,0,0,3.68,1.46c1.92,0,3.34-1.06,3.34-2.9,0-1.66-.82-2.34-3.26-3.1-2.72-.84-3.9-1.78-3.9-3.76s1.62-3.36,4-3.36A5.38,5.38,0,0,1,627.52,71.51Z"/><path class="cls-4" d="M637.68,74.29l-.58.76a3.46,3.46,0,0,0-2.32-.82c-1.9,0-3.24,1.48-3.24,4.5s1.32,4.38,3.22,4.38a3.75,3.75,0,0,0,2.42-.88l.56.78a4.52,4.52,0,0,1-3,1.12c-2.68,0-4.44-2-4.44-5.38s1.74-5.52,4.42-5.52A4.19,4.19,0,0,1,637.68,74.29Z"/><path class="cls-4" d="M648.06,76.43v7.48H646.9V76.59c0-1.7-.72-2.42-2-2.42-1.42,0-2.38.88-3.24,2.16v7.58h-1.16V69.19l1.16-.14v6.14a4.15,4.15,0,0,1,3.46-2C647,73.23,648.06,74.45,648.06,76.43Z"/><path class="cls-4" d="M653.64,69.69a.87.87,0,1,1-.88-.84A.83.83,0,0,1,653.64,69.69Zm-.28,14.22H652.2V73.45h1.16Z"/><path class="cls-4" d="M665,79.13h-7c.14,2.84,1.46,4,3.26,4a4.35,4.35,0,0,0,2.82-1l.54.74a5.16,5.16,0,0,1-3.42,1.28c-2.76,0-4.44-2-4.44-5.36s1.62-5.54,4.18-5.54c2.72,0,4.08,2,4.08,5.06C665,78.61,665,78.93,665,79.13Zm-1.1-1.2c0-2.28-.92-3.74-2.9-3.74-1.64,0-2.86,1.2-3,4h5.88Z"/><path class="cls-4" d="M676.44,78.63c0,3.36-1.46,5.5-4,5.5a3.69,3.69,0,0,1-3-1.54l-.12,1.32h-1V69.19l1.16-.14v5.86a3.79,3.79,0,0,1,3.14-1.68C675,73.23,676.44,75.15,676.44,78.63Zm-1.24,0c0-3.08-1-4.44-2.82-4.44a3.47,3.47,0,0,0-2.9,1.8v5.5a3.3,3.3,0,0,0,2.76,1.68C674.1,83.17,675.2,81.67,675.2,78.63Z"/><path class="cls-4" d="M687.32,79.13h-7c.14,2.84,1.46,4,3.26,4a4.35,4.35,0,0,0,2.82-1l.54.74a5.16,5.16,0,0,1-3.42,1.28c-2.76,0-4.44-2-4.44-5.36s1.62-5.54,4.18-5.54c2.72,0,4.08,2,4.08,5.06C687.36,78.61,687.34,78.93,687.32,79.13Zm-1.1-1.2c0-2.28-.92-3.74-2.9-3.74-1.64,0-2.86,1.2-3,4h5.88Z"/><path class="cls-4" d="M695.76,73.35l-.22,1.1a3.31,3.31,0,0,0-.92-.12c-1.46,0-2.24,1-2.8,3.18v6.4h-1.16V73.45h1l.1,2.34c.56-1.72,1.5-2.56,3-2.56A3.91,3.91,0,0,1,695.76,73.35Z"/></g></g></svg>