<svg xmlns="http://www.w3.org/2000/svg" viewBox="0 0 767 100.09"><defs><style>.cls-1{fill:#f5f2d0;}</style></defs><title>121</title><g id="Ebene_2" data-name="Ebene 2"><g id="Ebene_1-2" data-name="Ebene 1"><rect y="0.03" width="767" height="100.06"/><rect width="767" height="100.06"/><rect class="cls-1" y="45.55" width="767" height="7.69"/><ellipse class="cls-1" cx="305.83" cy="18.95" rx="10.02" ry="10.48"/><path class="cls-1" d="M308.52,34.08h-5.39c-1.48,0-4,1.31-5.56,2.91s-2.87,6.88-2.87,11.73a129.11,129.11,0,0,0,1.49,17.69l1.9,11.28c.82,4.88.39,8.88-.95,8.88s-2.44,2.5-2.44,5.56,1.52,5.56,3.38,5.56h15.5c1.86,0,3.38-2.5,3.38-5.56s-1.1-5.56-2.44-5.56-1.77-4-.95-8.88l1.9-11.28A129.11,129.11,0,0,0,317,48.72c0-4.85-1.29-10.13-2.87-11.73S310,34.08,308.52,34.08Z"/><path class="cls-1" d="M344.6,94.58h6.87l-.19,1.29h-8.12V79.43h1.44Z"/><path class="cls-1" d="M362.8,80.63h-6.75v6.12h5.83V88h-5.83v6.72h7.08v1.2h-8.52V79.43H363Z"/><path class="cls-1" d="M374.44,91.38h-6.92l-1.44,4.49h-1.46l5.5-16.44h1.8l5.47,16.44h-1.51Zm-.39-1.22L371,80.61l-3.07,9.55Z"/><path class="cls-1" d="M385.19,88.5H381.9v7.37h-1.44V79.43h4c4,0,5.86,1.56,5.86,4.46,0,2.45-1.34,3.75-3.67,4.35l4.51,7.63h-1.7Zm-.55-1.17c2.61,0,4.12-1,4.12-3.44,0-2.18-1.22-3.28-4.36-3.28h-2.5v6.72Z"/><path class="cls-1" d="M405.44,95.87h-1.89L395.79,81c.08,1.13.2,2.72.2,5.67v9.19h-1.37V79.43h1.85l7.8,14.86c0-.7-.19-2.74-.19-4.88v-10h1.36Z"/></g></g></svg>