<svg xmlns="http://www.w3.org/2000/svg" viewBox="0 0 767 100.06"><defs><style>.cls-1{fill:#f5f2d0;}.cls-2{fill:#fff;stroke:#000;stroke-miterlimit:10;stroke-width:0.25px;}</style></defs><title>Element 2</title><g id="Ebene_2" data-name="Ebene 2"><g id="Ebene_1-2" data-name="Ebene 1"><rect width="767" height="100.06"/><path class="cls-1" d="M362.11,84.64h-9.54V16.52h9.54V49.61h.61L389.2,16.52h11L375.56,46.64l26.82,38h-11.9L368.86,53.91l-6.75,8.21Z"/><path class="cls-1" d="M478.43,77q6.38,0,10.15-3.73t3.92-10.15h9.91q0,10.34-6.59,16.62t-17.35,6.28q-12.18,0-19-7.67t-6.78-21.51V44.28q0-13.85,6.78-21.51t19-7.67q11.05,0,17.43,6.35T502.41,39H492.5q-.19-6.7-4.09-10.79a13.24,13.24,0,0,0-10-4.08q-7.65,0-11.59,5.12t-3.94,15v12.6q0,9.91,3.94,15T478.43,77Z"/><path class="cls-1" d="M525.73,84.64H516.2V16.52h9.53V49.61h.62l26.48-33.09h11L539.19,46.64l26.81,38H554.11L532.48,53.91l-6.75,8.21Z"/><path class="cls-1" d="M598.11,84.64H574.83V16.52h22.95q9.54,0,14.94,4.48t5.4,12.37a15.25,15.25,0,0,1-3.32,9.8,13.57,13.57,0,0,1-8.57,5.07V49a16.5,16.5,0,0,1,11.07,5.19,16.15,16.15,0,0,1,4.22,11.38q0,9-6.23,14T598.11,84.64Zm-13.6-60.1v21h9.77q6.75,0,10.37-2.69a9.08,9.08,0,0,0,3.61-7.74,9.56,9.56,0,0,0-3.35-7.84q-3.36-2.73-9.54-2.74Zm0,52h11.14q15.68,0,15.68-11.75,0-5.71-4-8.62t-11.89-2.9H584.51Z"/><ellipse class="cls-1" cx="427.83" cy="17.95" rx="10.02" ry="10.48"/><path class="cls-1" d="M430.52,33.08h-5.39c-1.48,0-4,1.31-5.56,2.91s-2.87,6.88-2.87,11.73a129.11,129.11,0,0,0,1.49,17.69l1.9,11.28c.82,4.88.39,8.88-.95,8.88s-2.44,2.5-2.44,5.56,1.52,5.56,3.38,5.56h15.5c1.86,0,3.38-2.5,3.38-5.56s-1.1-5.56-2.44-5.56-1.77-4-.95-8.88l1.9-11.28A129.11,129.11,0,0,0,439,47.72c0-4.85-1.29-10.13-2.87-11.73S432,33.08,430.52,33.08Z"/><rect class="cls-1" y="45.55" width="713.01" height="7.69"/><rect class="cls-1" x="680.83" y="45.55" width="83.57" height="7.7"/><polygon class="cls-1" points="661.7 16.52 650.75 16.52 629.27 84.64 639.18 84.64 644.66 65.85 646.97 57.87 655.85 27.42 656.18 27.42 665.01 57.87 667.32 65.85 672.75 84.64 683.18 84.64 661.7 16.52"/><line class="cls-2" x1="709.82" y1="52.84" x2="733.42" y2="52.84"/><path class="cls-1" d="M728.84,58.86h0l-3-6h4c1.23-1.06.11-2.83,2.84-4.27,3.62-1.92,5.46-7.25,5.46-11.69,0-6.45-1.87-10.91-5.9-14.63s-7.72-5.75-14.68-5.75H694.13V84.64h9.78V52.84h11.66l2.26,5.22L730.3,84.64h11.05ZM716.5,45.55H703.91V24.87h12.6c4.31,0,6.5-.23,8.9,2s4,4.37,4,8.37-1.51,5.82-3.93,8S721,45.55,716.5,45.55Z"/></g></g></svg>