<svg xmlns="http://www.w3.org/2000/svg" viewBox="0 0 767 100.09"><defs><style>.cls-1{fill:#f5f2d0;}</style></defs><title>12</title><g id="Ebene_2" data-name="Ebene 2"><g id="Ebene_1-2" data-name="Ebene 1"><rect y="0.03" width="767" height="100.06"/><rect width="767" height="100.06"/><rect class="cls-1" y="45.55" width="767" height="7.69"/><ellipse class="cls-1" cx="505.83" cy="18.95" rx="10.02" ry="10.48"/><path class="cls-1" d="M508.52,34.08h-5.39c-1.48,0-4,1.31-5.56,2.91s-2.87,6.88-2.87,11.73a129.11,129.11,0,0,0,1.49,17.69l1.9,11.28c.82,4.88.39,8.88-.95,8.88s-2.44,2.5-2.44,5.56,1.52,5.56,3.38,5.56h15.5c1.86,0,3.38-2.5,3.38-5.56s-1.1-5.56-2.44-5.56-1.77-4-.95-8.88l1.9-11.28A129.11,129.11,0,0,0,517,48.72c0-4.85-1.29-10.13-2.87-11.73S510,34.08,508.52,34.08Z"/><path class="cls-1" d="M553.1,84.35c0,3.7-2.57,5.11-6.14,5.11H544.6v6.41h-1.44V79.43H547C550.84,79.43,553.1,80.94,553.1,84.35Zm-1.51,0c0-2.78-1.71-3.76-4.59-3.76h-2.4v7.68H547C549.69,88.29,551.59,87.4,551.59,84.37Z"/><path class="cls-1" d="M561.57,88.5h-3.29v7.37h-1.44V79.43h4c4,0,5.85,1.56,5.85,4.46,0,2.45-1.34,3.75-3.67,4.35l4.52,7.63h-1.71ZM561,87.33c2.62,0,4.13-1,4.13-3.44,0-2.18-1.23-3.28-4.37-3.28h-2.5v6.72Z"/><path class="cls-1" d="M578.54,91.38h-6.91l-1.44,4.49h-1.47l5.5-16.44H576l5.47,16.44H580Zm-.38-1.22-3-9.55L572,90.16Z"/><path class="cls-1" d="M594.12,80.68l-.77,1A5,5,0,0,0,590,80.39c-2.86,0-5.23,2-5.23,7.25,0,5,2.28,7.22,5.16,7.22a5.33,5.33,0,0,0,3.64-1.36l.75.93a6.19,6.19,0,0,1-4.44,1.7c-3.79,0-6.63-2.95-6.63-8.49s3-8.47,6.65-8.47A6,6,0,0,1,594.12,80.68Z"/><path class="cls-1" d="M606.09,80.7h-4.82V95.87h-1.42V80.7H595V79.43h11.28Z"/><path class="cls-1" d="M610.6,95.87h-1.44V79.43h1.44Z"/><path class="cls-1" d="M625.72,80.68l-.76,1a5,5,0,0,0-3.36-1.25c-2.86,0-5.24,2-5.24,7.25,0,5,2.28,7.22,5.16,7.22a5.34,5.34,0,0,0,3.65-1.36l.75.93a6.19,6.19,0,0,1-4.44,1.7c-3.8,0-6.63-2.95-6.63-8.49s3-8.47,6.65-8.47A6,6,0,0,1,625.72,80.68Z"/><path class="cls-1" d="M637.32,80.63h-6.75v6.12h5.83V88h-5.83v6.72h7.08v1.2h-8.52V79.43h8.35Z"/></g></g></svg>