<svg xmlns="http://www.w3.org/2000/svg" xmlns:xlink="http://www.w3.org/1999/xlink" viewBox="0 0 27.85 16.93"><defs><style>.cls-1{fill:none;}.cls-2{clip-path:url(#clip-path);}.cls-3{fill:#bdbbac;}</style><clipPath id="clip-path" transform="translate(0 0)"><rect class="cls-1" width="27.85" height="16.93"/></clipPath></defs><title>Element 1</title><g id="Ebene_2" data-name="Ebene 2"><g id="Ebene_1-2" data-name="Ebene 1"><g class="cls-2"><path class="cls-3" d="M12.69,9.9c-.78,1-1.37,1.72-1.94,2.46a6.88,6.88,0,0,1-5.21,2.55,30.11,30.11,0,0,1-4,0C.67,14.87,0,14.57,0,13.47s.76-1.1,1.53-1.1a44,44,0,0,0,4.45,0c2.38-.25,3.31-2.49,5.1-4C9.89,7.19,8.86,6.11,7.73,5.15a2.71,2.71,0,0,0-1.56-.43c-1.53-.06-3.06,0-4.59,0C.83,4.65,0,4.5.05,3.45A1.23,1.23,0,0,1,1.57,2.12c1.8.14,3.6.23,5.39.23a5,5,0,0,1,3.68,2c.67.72,1.29,1.48,2.06,2.37,2.57-2.91,5-5.48,9.09-4.41.1-.55.16-.86.21-1.17.21-1.23.68-1.41,1.65-.73,1.14.78,2.31,1.5,3.48,2.22.93.56,1,1,.05,1.56-1.14.71-2.31,1.4-3.46,2.09S22.27,6.8,22,5.42c0-.18-.07-.36-.1-.48-3.51-1.31-5.19,1.23-7.17,3.45,2,2.1,3.53,4.78,7.12,3.83.12-.58.24-1.21.4-2,2.21.35,3.7,1.88,5.42,2.92a1.52,1.52,0,0,1-.32,1.12c-1.26.87-2.58,1.66-3.91,2.41-.94.54-1.23.23-1.59-1.77-3.9.58-6.57-1.61-9.16-5" transform="translate(0 0)"/></g></g></g></svg>