<svg xmlns="http://www.w3.org/2000/svg" xmlns:xlink="http://www.w3.org/1999/xlink" viewBox="0 0 767 100.07"><defs><style>.cls-1{fill:none;}.cls-2{opacity:0.2;}.cls-3{clip-path:url(#clip-path);}.cls-4{fill:#bdbbac;}.cls-5{clip-path:url(#clip-path-2);}.cls-6{clip-path:url(#clip-path-3);}.cls-7{clip-path:url(#clip-path-4);}.cls-8{clip-path:url(#clip-path-5);}.cls-9{clip-path:url(#clip-path-6);}.cls-10{clip-path:url(#clip-path-7);}.cls-11{clip-path:url(#clip-path-8);}.cls-12{clip-path:url(#clip-path-9);}.cls-13{clip-path:url(#clip-path-10);}</style><clipPath id="clip-path"><rect class="cls-1" x="531.09" y="0.9" width="43.81" height="30.2"/></clipPath><clipPath id="clip-path-2"><rect class="cls-1" x="530.1" y="23.68" width="45.79" height="68.15"/></clipPath><clipPath id="clip-path-3"><rect class="cls-1" x="192.09" y="0.9" width="43.81" height="30.2"/></clipPath><clipPath id="clip-path-4"><rect class="cls-1" x="191.1" y="23.68" width="45.79" height="68.15"/></clipPath><clipPath id="clip-path-5"><rect class="cls-1" x="361.59" y="0.9" width="43.81" height="30.2"/></clipPath><clipPath id="clip-path-6"><rect class="cls-1" x="360.6" y="23.68" width="45.79" height="68.15"/></clipPath><clipPath id="clip-path-7"><rect class="cls-1" x="22.59" y="0.9" width="43.81" height="30.2"/></clipPath><clipPath id="clip-path-8"><rect class="cls-1" x="21.6" y="23.68" width="45.79" height="68.15"/></clipPath><clipPath id="clip-path-9"><rect class="cls-1" x="700.59" y="0.9" width="43.81" height="30.2"/></clipPath><clipPath id="clip-path-10"><rect class="cls-1" x="699.6" y="23.68" width="45.79" height="68.15"/></clipPath></defs><title>Element 5</title><g id="Ebene_2" data-name="Ebene 2"><g id="Ebene_1-2" data-name="Ebene 1"><rect width="767" height="100.06"/><rect y="0.01" width="767" height="100.06"/><g class="cls-2"><g class="cls-3"><path class="cls-4" d="M553,29.66a9.13,9.13,0,0,0,8.91-9.33,8.92,8.92,0,1,0-17.83,0A9.14,9.14,0,0,0,553,29.66"/></g></g><g class="cls-2"><g class="cls-5"><path class="cls-4" d="M555.4,33.79h-4.8a8.38,8.38,0,0,0-4.85,2.49l-.2.2a9.83,9.83,0,0,0-2.45,6v8.69a50.51,50.51,0,0,0,.58,7L546.86,77c.32,1.9-.4,3.45-1.59,3.45s-2.17,1.58-2.17,3.5v2.9a3.29,3.29,0,0,0,3,3.5h13.8a3.29,3.29,0,0,0,3-3.5V84c0-1.92-1-3.5-2.17-3.5s-1.91-1.55-1.59-3.45l3.18-18.93a50.51,50.51,0,0,0,.58-7V42.47a9.83,9.83,0,0,0-2.45-6l-.2-.2a8.38,8.38,0,0,0-4.85-2.49"/></g></g><g class="cls-2"><g class="cls-6"><path class="cls-4" d="M214,29.66a9.13,9.13,0,0,0,8.91-9.33,8.92,8.92,0,1,0-17.82,0A9.13,9.13,0,0,0,214,29.66"/></g></g><g class="cls-2"><g class="cls-7"><path class="cls-4" d="M216.4,33.79h-4.8a8.38,8.38,0,0,0-4.85,2.49l-.2.2a9.83,9.83,0,0,0-2.45,6v8.69a50.51,50.51,0,0,0,.58,7L207.86,77c.32,1.9-.4,3.45-1.59,3.45s-2.17,1.58-2.17,3.5v2.9a3.29,3.29,0,0,0,3,3.5h13.8a3.29,3.29,0,0,0,3-3.5V84c0-1.92-1-3.5-2.17-3.5s-1.91-1.55-1.59-3.45l3.18-18.93a50.51,50.51,0,0,0,.58-7V42.47a9.83,9.83,0,0,0-2.45-6l-.2-.2a8.38,8.38,0,0,0-4.85-2.49"/></g></g><rect class="cls-4" y="45.62" width="767" height="7.5"/><path class="cls-4" d="M622.37,78.47l-.7.76A4.56,4.56,0,0,0,618.46,78c-1.68,0-2.84.88-2.84,2.32s.74,2,3.2,2.78,4,1.64,4,4.06-1.78,4-4.55,4a6.06,6.06,0,0,1-4.38-1.72l.68-.76a5.25,5.25,0,0,0,3.68,1.46c1.92,0,3.35-1.06,3.35-2.9,0-1.66-.82-2.34-3.27-3.1-2.72-.84-3.9-1.78-3.9-3.76S616,77,618.42,77A5.39,5.39,0,0,1,622.37,78.47Z"/><path class="cls-4" d="M632.53,81.25,632,82a3.5,3.5,0,0,0-2.32-.82c-1.91,0-3.25,1.48-3.25,4.5s1.32,4.38,3.22,4.38a3.77,3.77,0,0,0,2.43-.88l.55.78a4.5,4.5,0,0,1-3,1.12c-2.68,0-4.44-2-4.44-5.38s1.74-5.52,4.42-5.52A4.23,4.23,0,0,1,632.53,81.25Z"/><path class="cls-4" d="M642.91,83.39v7.48h-1.16V83.55c0-1.7-.72-2.42-2-2.42s-2.38.88-3.24,2.16v7.58h-1.16V76.15l1.16-.14v6.14a4.15,4.15,0,0,1,3.46-2C641.87,80.19,642.91,81.41,642.91,83.39Z"/><path class="cls-4" d="M648.48,76.65a.87.87,0,1,1-.88-.84A.83.83,0,0,1,648.48,76.65Zm-.28,14.22H647V80.41h1.16Z"/><path class="cls-4" d="M659.83,86.09h-7c.14,2.84,1.46,4,3.26,4a4.4,4.4,0,0,0,2.83-1l.53.74A5.16,5.16,0,0,1,656,91.09c-2.76,0-4.44-2-4.44-5.36s1.62-5.54,4.18-5.54c2.72,0,4.09,2,4.09,5.06C659.87,85.57,659.85,85.89,659.83,86.09Zm-1.11-1.2c0-2.28-.92-3.74-2.9-3.74-1.64,0-2.86,1.2-3,4h5.88Z"/><path class="cls-4" d="M671.29,85.59c0,3.36-1.47,5.5-4,5.5a3.69,3.69,0,0,1-3-1.54l-.12,1.32h-1V76.15l1.16-.14v5.86a3.79,3.79,0,0,1,3.14-1.68C669.87,80.19,671.29,82.11,671.29,85.59Zm-1.25,0c0-3.08-1-4.44-2.82-4.44a3.47,3.47,0,0,0-2.9,1.8v5.5a3.3,3.3,0,0,0,2.76,1.68C669,90.13,670,88.63,670,85.59Z"/><path class="cls-4" d="M682.17,86.09h-7c.14,2.84,1.46,4,3.26,4a4.4,4.4,0,0,0,2.83-1l.53.74a5.16,5.16,0,0,1-3.42,1.28c-2.76,0-4.44-2-4.44-5.36s1.62-5.54,4.18-5.54c2.72,0,4.09,2,4.09,5.06C682.21,85.57,682.19,85.89,682.17,86.09Zm-1.11-1.2c0-2.28-.92-3.74-2.9-3.74-1.64,0-2.86,1.2-3,4h5.88Z"/><path class="cls-4" d="M690.6,80.31l-.22,1.1a3.31,3.31,0,0,0-.92-.12c-1.46,0-2.24,1-2.8,3.18v6.4H685.5V80.41h1l.1,2.34c.56-1.72,1.5-2.56,3-2.56A3.91,3.91,0,0,1,690.6,80.31Z"/><g class="cls-2"><g class="cls-8"><path class="cls-4" d="M383.5,29.66a9.13,9.13,0,0,0,8.91-9.33,8.92,8.92,0,1,0-17.82,0,9.13,9.13,0,0,0,8.91,9.33"/></g></g><g class="cls-2"><g class="cls-9"><path class="cls-4" d="M385.9,33.79h-4.8a8.38,8.38,0,0,0-4.85,2.49l-.2.2a9.83,9.83,0,0,0-2.45,6v8.69a50.51,50.51,0,0,0,.58,7L377.36,77c.32,1.9-.4,3.45-1.59,3.45s-2.17,1.58-2.17,3.5v2.9a3.29,3.29,0,0,0,3,3.5h13.8a3.29,3.29,0,0,0,3-3.5V84c0-1.92-1-3.5-2.17-3.5s-1.91-1.55-1.59-3.45l3.18-18.93a50.51,50.51,0,0,0,.58-7V42.47a9.83,9.83,0,0,0-2.45-6l-.2-.2a8.38,8.38,0,0,0-4.85-2.49"/></g></g><g class="cls-2"><g class="cls-10"><path class="cls-4" d="M44.5,29.66a9.13,9.13,0,0,0,8.91-9.33,8.92,8.92,0,1,0-17.82,0,9.13,9.13,0,0,0,8.91,9.33"/></g></g><g class="cls-2"><g class="cls-11"><path class="cls-4" d="M46.9,33.79H42.1a8.38,8.38,0,0,0-4.85,2.49l-.2.2a9.83,9.83,0,0,0-2.45,6v8.69a50.51,50.51,0,0,0,.58,7L38.36,77c.32,1.9-.4,3.45-1.59,3.45S34.6,82.07,34.6,84v2.9a3.29,3.29,0,0,0,3,3.5H51.4a3.29,3.29,0,0,0,3-3.5V84c0-1.92-1-3.5-2.17-3.5S50.32,78.94,50.64,77l3.18-18.93a50.51,50.51,0,0,0,.58-7V42.47a9.83,9.83,0,0,0-2.45-6l-.2-.2a8.38,8.38,0,0,0-4.85-2.49"/></g></g><g class="cls-12"><path class="cls-4" d="M722.5,29.66a9.13,9.13,0,0,0,8.91-9.33,8.92,8.92,0,1,0-17.82,0,9.13,9.13,0,0,0,8.91,9.33"/></g><g class="cls-13"><path class="cls-4" d="M724.9,33.79h-4.8a8.38,8.38,0,0,0-4.85,2.49l-.2.2a9.83,9.83,0,0,0-2.45,6v8.69a50.51,50.51,0,0,0,.58,7L716.36,77c.32,1.9-.4,3.45-1.59,3.45s-2.17,1.58-2.17,3.5v2.9a3.29,3.29,0,0,0,3,3.5h13.8a3.29,3.29,0,0,0,3-3.5V84c0-1.92-1-3.5-2.17-3.5s-1.91-1.55-1.59-3.45l3.18-18.93a50.51,50.51,0,0,0,.58-7V42.47a9.83,9.83,0,0,0-2.45-6l-.2-.2a8.38,8.38,0,0,0-4.85-2.49"/></g></g></g></svg>