<svg xmlns="http://www.w3.org/2000/svg" xmlns:xlink="http://www.w3.org/1999/xlink" viewBox="0 0 767 100.07"><defs><style>.cls-1{fill:none;}.cls-2{opacity:0.2;}.cls-3{clip-path:url(#clip-path);}.cls-4{fill:#bdbbac;}.cls-5{clip-path:url(#clip-path-2);}.cls-6{clip-path:url(#clip-path-3);}.cls-7{clip-path:url(#clip-path-4);}.cls-8{clip-path:url(#clip-path-5);}.cls-9{clip-path:url(#clip-path-6);}.cls-10{clip-path:url(#clip-path-7);}.cls-11{clip-path:url(#clip-path-8);}.cls-12{clip-path:url(#clip-path-9);}.cls-13{clip-path:url(#clip-path-10);}</style><clipPath id="clip-path"><rect class="cls-1" x="531.09" y="0.9" width="43.81" height="30.2"/></clipPath><clipPath id="clip-path-2"><rect class="cls-1" x="530.1" y="23.68" width="45.79" height="68.15"/></clipPath><clipPath id="clip-path-3"><rect class="cls-1" x="192.09" y="0.9" width="43.81" height="30.2"/></clipPath><clipPath id="clip-path-4"><rect class="cls-1" x="191.1" y="23.68" width="45.79" height="68.15"/></clipPath><clipPath id="clip-path-5"><rect class="cls-1" x="361.59" y="0.9" width="43.81" height="30.2"/></clipPath><clipPath id="clip-path-6"><rect class="cls-1" x="360.6" y="23.68" width="45.79" height="68.15"/></clipPath><clipPath id="clip-path-7"><rect class="cls-1" x="22.59" y="0.9" width="43.81" height="30.2"/></clipPath><clipPath id="clip-path-8"><rect class="cls-1" x="21.6" y="23.68" width="45.79" height="68.15"/></clipPath><clipPath id="clip-path-9"><rect class="cls-1" x="700.59" y="0.9" width="43.81" height="30.2"/></clipPath><clipPath id="clip-path-10"><rect class="cls-1" x="699.6" y="23.68" width="45.79" height="68.15"/></clipPath></defs><title>Element 5</title><g id="Ebene_2" data-name="Ebene 2"><g id="Ebene_1-2" data-name="Ebene 1"><rect width="767" height="100.06"/><rect y="0.01" width="767" height="100.06"/><g class="cls-2"><g class="cls-3"><path class="cls-4" d="M553,29.66a9.13,9.13,0,0,0,8.91-9.33,8.92,8.92,0,1,0-17.83,0A9.14,9.14,0,0,0,553,29.66"/></g></g><g class="cls-2"><g class="cls-5"><path class="cls-4" d="M555.4,33.79h-4.8a8.38,8.38,0,0,0-4.85,2.49l-.2.2a9.83,9.83,0,0,0-2.45,6v8.69a50.51,50.51,0,0,0,.58,7L546.86,77c.32,1.9-.4,3.45-1.59,3.45s-2.17,1.58-2.17,3.5v2.9a3.29,3.29,0,0,0,3,3.5h13.8a3.29,3.29,0,0,0,3-3.5V84c0-1.92-1-3.5-2.17-3.5s-1.91-1.55-1.59-3.45l3.18-18.93a50.51,50.51,0,0,0,.58-7V42.47a9.83,9.83,0,0,0-2.45-6l-.2-.2a8.38,8.38,0,0,0-4.85-2.49"/></g></g><g class="cls-6"><path class="cls-4" d="M214,29.66a9.13,9.13,0,0,0,8.91-9.33,8.92,8.92,0,1,0-17.82,0A9.13,9.13,0,0,0,214,29.66"/></g><g class="cls-7"><path class="cls-4" d="M216.4,33.79h-4.8a8.38,8.38,0,0,0-4.85,2.49l-.2.2a9.83,9.83,0,0,0-2.45,6v8.69a50.51,50.51,0,0,0,.58,7L207.86,77c.32,1.9-.4,3.45-1.59,3.45s-2.17,1.58-2.17,3.5v2.9a3.29,3.29,0,0,0,3,3.5h13.8a3.29,3.29,0,0,0,3-3.5V84c0-1.92-1-3.5-2.17-3.5s-1.91-1.55-1.59-3.45l3.18-18.93a50.51,50.51,0,0,0,.58-7V42.47a9.83,9.83,0,0,0-2.45-6l-.2-.2a8.38,8.38,0,0,0-4.85-2.49"/></g><rect class="cls-4" y="45.62" width="767" height="7.5"/><path class="cls-4" d="M246.71,78.17h-5.62v5.1H246v1h-4.86v5.6H247v1h-7.1V77.17h7Z"/><path class="cls-4" d="M251.47,76.65a.87.87,0,1,1-.88-.84A.83.83,0,0,1,251.47,76.65Zm-.28,14.22H250V80.41h1.16Z"/><path class="cls-4" d="M263,83.39v7.48h-1.16V83.55c0-1.72-.7-2.42-2-2.42s-2.38.88-3.24,2.16v7.58h-1.16V80.41h1l.12,1.78a4.16,4.16,0,0,1,3.5-2C262,80.19,263,81.37,263,83.39Z"/><path class="cls-4" d="M268.27,90.87h-1.16V76.15l1.16-.14Zm1.46-5.78,4.86,5.78h-1.4l-4.8-5.72,4.4-4.74h1.34Z"/><path class="cls-4" d="M276.77,89.11v-13l1.16-.14V89.07c0,.68.26,1,.84,1a1.71,1.71,0,0,0,.72-.14l.32.86a2.79,2.79,0,0,1-1.2.28A1.74,1.74,0,0,1,276.77,89.11Z"/><path class="cls-4" d="M289.83,86.09h-7c.14,2.84,1.46,4,3.26,4a4.35,4.35,0,0,0,2.82-1l.54.74a5.16,5.16,0,0,1-3.42,1.28c-2.76,0-4.44-2-4.44-5.36s1.62-5.54,4.18-5.54c2.72,0,4.08,2,4.08,5.06C289.87,85.57,289.85,85.89,289.83,86.09Zm-1.1-1.2c0-2.28-.92-3.74-2.9-3.74-1.64,0-2.86,1.2-3,4h5.88Z"/><path class="cls-4" d="M306.09,83.39v7.48h-1.16V83.55c0-1.7-.7-2.42-1.78-2.42-1.26,0-2.14.88-2.94,2.16v7.58h-1.16V83.55c0-1.7-.7-2.42-1.78-2.42-1.26,0-2.16.88-2.94,2.16v7.58h-1.16V80.41h1l.1,1.78a3.89,3.89,0,0,1,3.22-2,2.55,2.55,0,0,1,2.6,2.08,3.93,3.93,0,0,1,3.28-2.08C305.05,80.19,306.09,81.41,306.09,83.39Z"/><path class="cls-4" d="M323.15,83.39v7.48H322V83.55c0-1.7-.7-2.42-1.78-2.42-1.26,0-2.14.88-2.94,2.16v7.58h-1.16V83.55c0-1.7-.7-2.42-1.78-2.42-1.26,0-2.16.88-2.94,2.16v7.58h-1.16V80.41h1l.1,1.78a3.89,3.89,0,0,1,3.22-2,2.55,2.55,0,0,1,2.6,2.08,3.93,3.93,0,0,1,3.28-2.08C322.11,80.19,323.15,81.41,323.15,83.39Z"/><path class="cls-4" d="M334.67,86.09h-7c.14,2.84,1.46,4,3.26,4a4.35,4.35,0,0,0,2.82-1l.54.74a5.16,5.16,0,0,1-3.42,1.28c-2.76,0-4.44-2-4.44-5.36s1.62-5.54,4.18-5.54c2.72,0,4.08,2,4.08,5.06C334.71,85.57,334.69,85.89,334.67,86.09Zm-1.1-1.2c0-2.28-.92-3.74-2.9-3.74-1.64,0-2.86,1.2-3,4h5.88Z"/><path class="cls-4" d="M345.55,83.39v7.48h-1.16V83.55c0-1.72-.7-2.42-2-2.42s-2.38.88-3.24,2.16v7.58H338V80.41h1l.12,1.78a4.16,4.16,0,0,1,3.5-2C344.53,80.19,345.55,81.37,345.55,83.39Z"/><g class="cls-2"><g class="cls-8"><path class="cls-4" d="M383.5,29.66a9.13,9.13,0,0,0,8.91-9.33,8.92,8.92,0,1,0-17.82,0,9.13,9.13,0,0,0,8.91,9.33"/></g></g><g class="cls-2"><g class="cls-9"><path class="cls-4" d="M385.9,33.79h-4.8a8.38,8.38,0,0,0-4.85,2.49l-.2.2a9.83,9.83,0,0,0-2.45,6v8.69a50.51,50.51,0,0,0,.58,7L377.36,77c.32,1.9-.4,3.45-1.59,3.45s-2.17,1.58-2.17,3.5v2.9a3.29,3.29,0,0,0,3,3.5h13.8a3.29,3.29,0,0,0,3-3.5V84c0-1.92-1-3.5-2.17-3.5s-1.91-1.55-1.59-3.45l3.18-18.93a50.51,50.51,0,0,0,.58-7V42.47a9.83,9.83,0,0,0-2.45-6l-.2-.2a8.38,8.38,0,0,0-4.85-2.49"/></g></g><g class="cls-2"><g class="cls-10"><path class="cls-4" d="M44.5,29.66a9.13,9.13,0,0,0,8.91-9.33,8.92,8.92,0,1,0-17.82,0,9.13,9.13,0,0,0,8.91,9.33"/></g></g><g class="cls-2"><g class="cls-11"><path class="cls-4" d="M46.9,33.79H42.1a8.38,8.38,0,0,0-4.85,2.49l-.2.2a9.83,9.83,0,0,0-2.45,6v8.69a50.51,50.51,0,0,0,.58,7L38.36,77c.32,1.9-.4,3.45-1.59,3.45S34.6,82.07,34.6,84v2.9a3.29,3.29,0,0,0,3,3.5H51.4a3.29,3.29,0,0,0,3-3.5V84c0-1.92-1-3.5-2.17-3.5S50.32,78.94,50.64,77l3.18-18.93a50.51,50.51,0,0,0,.58-7V42.47a9.83,9.83,0,0,0-2.45-6l-.2-.2a8.38,8.38,0,0,0-4.85-2.49"/></g></g><g class="cls-2"><g class="cls-12"><path class="cls-4" d="M722.5,29.66a9.13,9.13,0,0,0,8.91-9.33,8.92,8.92,0,1,0-17.82,0,9.13,9.13,0,0,0,8.91,9.33"/></g></g><g class="cls-2"><g class="cls-13"><path class="cls-4" d="M724.9,33.79h-4.8a8.38,8.38,0,0,0-4.85,2.49l-.2.2a9.83,9.83,0,0,0-2.45,6v8.69a50.51,50.51,0,0,0,.58,7L716.36,77c.32,1.9-.4,3.45-1.59,3.45s-2.17,1.58-2.17,3.5v2.9a3.29,3.29,0,0,0,3,3.5h13.8a3.29,3.29,0,0,0,3-3.5V84c0-1.92-1-3.5-2.17-3.5s-1.91-1.55-1.59-3.45l3.18-18.93a50.51,50.51,0,0,0,.58-7V42.47a9.83,9.83,0,0,0-2.45-6l-.2-.2a8.38,8.38,0,0,0-4.85-2.49"/></g></g></g></g></svg>