<svg xmlns="http://www.w3.org/2000/svg" xmlns:xlink="http://www.w3.org/1999/xlink" viewBox="0 0 767 100.07"><defs><style>.cls-1{fill:none;}.cls-2{opacity:0.2;}.cls-3{clip-path:url(#clip-path);}.cls-4{fill:#bdbbac;}.cls-5{clip-path:url(#clip-path-2);}.cls-6{clip-path:url(#clip-path-3);}.cls-7{clip-path:url(#clip-path-4);}.cls-8{clip-path:url(#clip-path-5);}.cls-9{clip-path:url(#clip-path-6);}.cls-10{clip-path:url(#clip-path-7);}.cls-11{clip-path:url(#clip-path-8);}.cls-12{clip-path:url(#clip-path-9);}.cls-13{clip-path:url(#clip-path-10);}</style><clipPath id="clip-path"><rect class="cls-1" x="531.09" y="0.9" width="43.81" height="30.2"/></clipPath><clipPath id="clip-path-2"><rect class="cls-1" x="530.1" y="23.68" width="45.79" height="68.15"/></clipPath><clipPath id="clip-path-3"><rect class="cls-1" x="192.09" y="0.9" width="43.81" height="30.2"/></clipPath><clipPath id="clip-path-4"><rect class="cls-1" x="191.1" y="23.68" width="45.79" height="68.15"/></clipPath><clipPath id="clip-path-5"><rect class="cls-1" x="361.59" y="0.9" width="43.81" height="30.2"/></clipPath><clipPath id="clip-path-6"><rect class="cls-1" x="360.6" y="23.68" width="45.79" height="68.15"/></clipPath><clipPath id="clip-path-7"><rect class="cls-1" x="22.59" y="0.9" width="43.81" height="30.2"/></clipPath><clipPath id="clip-path-8"><rect class="cls-1" x="21.6" y="23.68" width="45.79" height="68.15"/></clipPath><clipPath id="clip-path-9"><rect class="cls-1" x="700.59" y="0.9" width="43.81" height="30.2"/></clipPath><clipPath id="clip-path-10"><rect class="cls-1" x="699.6" y="23.68" width="45.79" height="68.15"/></clipPath></defs><title>Element 5</title><g id="Ebene_2" data-name="Ebene 2"><g id="Ebene_1-2" data-name="Ebene 1"><rect width="767" height="100.06"/><rect y="0.01" width="767" height="100.06"/><g class="cls-2"><g class="cls-3"><path class="cls-4" d="M553,29.66a9.13,9.13,0,0,0,8.91-9.33,8.92,8.92,0,1,0-17.83,0A9.14,9.14,0,0,0,553,29.66"/></g></g><g class="cls-2"><g class="cls-5"><path class="cls-4" d="M555.4,33.79h-4.8a8.38,8.38,0,0,0-4.85,2.49l-.2.2a9.83,9.83,0,0,0-2.45,6v8.69a50.51,50.51,0,0,0,.58,7L546.86,77c.32,1.9-.4,3.45-1.59,3.45s-2.17,1.58-2.17,3.5v2.9a3.29,3.29,0,0,0,3,3.5h13.8a3.29,3.29,0,0,0,3-3.5V84c0-1.92-1-3.5-2.17-3.5s-1.91-1.55-1.59-3.45l3.18-18.93a50.51,50.51,0,0,0,.58-7V42.47a9.83,9.83,0,0,0-2.45-6l-.2-.2a8.38,8.38,0,0,0-4.85-2.49"/></g></g><g class="cls-2"><g class="cls-6"><path class="cls-4" d="M214,29.66a9.13,9.13,0,0,0,8.91-9.33,8.92,8.92,0,1,0-17.82,0A9.13,9.13,0,0,0,214,29.66"/></g></g><g class="cls-2"><g class="cls-7"><path class="cls-4" d="M216.4,33.79h-4.8a8.38,8.38,0,0,0-4.85,2.49l-.2.2a9.83,9.83,0,0,0-2.45,6v8.69a50.51,50.51,0,0,0,.58,7L207.86,77c.32,1.9-.4,3.45-1.59,3.45s-2.17,1.58-2.17,3.5v2.9a3.29,3.29,0,0,0,3,3.5h13.8a3.29,3.29,0,0,0,3-3.5V84c0-1.92-1-3.5-2.17-3.5s-1.91-1.55-1.59-3.45l3.18-18.93a50.51,50.51,0,0,0,.58-7V42.47a9.83,9.83,0,0,0-2.45-6l-.2-.2a8.38,8.38,0,0,0-4.85-2.49"/></g></g><rect class="cls-4" y="45.62" width="767" height="7.5"/><path class="cls-4" d="M79.05,87.07c0,2.62-1.92,3.8-4.92,3.8H70.39V77.17h3.06c3.12,0,5,1.1,5,3.42a2.88,2.88,0,0,1-2.52,3A3.21,3.21,0,0,1,79.05,87.07Zm-7.46-8.9v5h2.76c1.66,0,2.84-.92,2.84-2.52,0-1.84-1.32-2.5-3.62-2.5Zm6.22,8.9c0-2.08-1.46-2.92-3.32-2.92h-2.9v5.72h2.54C76.35,89.87,77.81,89.11,77.81,87.07Z"/><path class="cls-4" d="M89.63,90.27l-.26.82a1.82,1.82,0,0,1-1.62-1.76,3.6,3.6,0,0,1-3.26,1.76A3,3,0,0,1,81.25,88c0-2.2,1.66-3.38,4.34-3.38h2v-1c0-1.66-.68-2.4-2.42-2.4a8.52,8.52,0,0,0-2.84.6l-.3-.88a8.74,8.74,0,0,1,3.3-.7c2.38,0,3.42,1.18,3.42,3.32v5C88.75,89.71,89.07,90.05,89.63,90.27Zm-2-2V85.43H85.77c-2.1,0-3.28.82-3.28,2.48a2,2,0,0,0,2.2,2.24A3.17,3.17,0,0,0,87.59,88.31Z"/><path class="cls-4" d="M100.51,83.39v7.48H99.35V83.55c0-1.72-.7-2.42-2-2.42S95,82,94.13,83.29v7.58H93V80.41h1l.12,1.78a4.16,4.16,0,0,1,3.5-2C99.49,80.19,100.51,81.37,100.51,83.39Z"/><path class="cls-4" d="M112.11,76.15V90.87h-1l-.14-1.6a3.5,3.5,0,0,1-3.14,1.82c-2.44,0-3.92-2.08-3.92-5.4s1.54-5.5,4.1-5.5A3.64,3.64,0,0,1,111,81.61V76Zm-1.16,12V82.73a3.26,3.26,0,0,0-2.74-1.58c-1.84,0-3.08,1.58-3.06,4.52s1.1,4.46,2.86,4.46A3.22,3.22,0,0,0,111,88.19Z"/><path class="cls-4" d="M123.73,86.09h-7c.14,2.84,1.46,4,3.26,4a4.35,4.35,0,0,0,2.82-1l.54.74A5.16,5.16,0,0,1,120,91.09c-2.76,0-4.44-2-4.44-5.36s1.62-5.54,4.18-5.54c2.72,0,4.08,2,4.08,5.06C123.77,85.57,123.75,85.89,123.73,86.09Zm-1.1-1.2c0-2.28-.92-3.74-2.9-3.74-1.64,0-2.86,1.2-3,4h5.88Z"/><g class="cls-2"><g class="cls-8"><path class="cls-4" d="M383.5,29.66a9.13,9.13,0,0,0,8.91-9.33,8.92,8.92,0,1,0-17.82,0,9.13,9.13,0,0,0,8.91,9.33"/></g></g><g class="cls-2"><g class="cls-9"><path class="cls-4" d="M385.9,33.79h-4.8a8.38,8.38,0,0,0-4.85,2.49l-.2.2a9.83,9.83,0,0,0-2.45,6v8.69a50.51,50.51,0,0,0,.58,7L377.36,77c.32,1.9-.4,3.45-1.59,3.45s-2.17,1.58-2.17,3.5v2.9a3.29,3.29,0,0,0,3,3.5h13.8a3.29,3.29,0,0,0,3-3.5V84c0-1.92-1-3.5-2.17-3.5s-1.91-1.55-1.59-3.45l3.18-18.93a50.51,50.51,0,0,0,.58-7V42.47a9.83,9.83,0,0,0-2.45-6l-.2-.2a8.38,8.38,0,0,0-4.85-2.49"/></g></g><g class="cls-10"><path class="cls-4" d="M44.5,29.66a9.13,9.13,0,0,0,8.91-9.33,8.92,8.92,0,1,0-17.82,0,9.13,9.13,0,0,0,8.91,9.33"/></g><g class="cls-11"><path class="cls-4" d="M46.9,33.79H42.1a8.38,8.38,0,0,0-4.85,2.49l-.2.2a9.83,9.83,0,0,0-2.45,6v8.69a50.51,50.51,0,0,0,.58,7L38.36,77c.32,1.9-.4,3.45-1.59,3.45S34.6,82.07,34.6,84v2.9a3.29,3.29,0,0,0,3,3.5H51.4a3.29,3.29,0,0,0,3-3.5V84c0-1.92-1-3.5-2.17-3.5S50.32,78.94,50.64,77l3.18-18.93a50.51,50.51,0,0,0,.58-7V42.47a9.83,9.83,0,0,0-2.45-6l-.2-.2a8.38,8.38,0,0,0-4.85-2.49"/></g><g class="cls-2"><g class="cls-12"><path class="cls-4" d="M722.5,29.66a9.13,9.13,0,0,0,8.91-9.33,8.92,8.92,0,1,0-17.82,0,9.13,9.13,0,0,0,8.91,9.33"/></g></g><g class="cls-2"><g class="cls-13"><path class="cls-4" d="M724.9,33.79h-4.8a8.38,8.38,0,0,0-4.85,2.49l-.2.2a9.83,9.83,0,0,0-2.45,6v8.69a50.51,50.51,0,0,0,.58,7L716.36,77c.32,1.9-.4,3.45-1.59,3.45s-2.17,1.58-2.17,3.5v2.9a3.29,3.29,0,0,0,3,3.5h13.8a3.29,3.29,0,0,0,3-3.5V84c0-1.92-1-3.5-2.17-3.5s-1.91-1.55-1.59-3.45l3.18-18.93a50.51,50.51,0,0,0,.58-7V42.47a9.83,9.83,0,0,0-2.45-6l-.2-.2a8.38,8.38,0,0,0-4.85-2.49"/></g></g></g></g></svg>