<svg xmlns="http://www.w3.org/2000/svg" xmlns:xlink="http://www.w3.org/1999/xlink" viewBox="0 0 767 100"><defs><style>.cls-1{fill:none;}.cls-2{clip-path:url(#clip-path);}.cls-3{clip-path:url(#clip-path-2);}.cls-4{fill:#bdbbac;}.cls-5{opacity:0.2;}.cls-6{clip-path:url(#clip-path-4);}.cls-7{clip-path:url(#clip-path-5);}.cls-8{clip-path:url(#clip-path-6);}.cls-9{fill:#f7f0c4;}.cls-10{clip-path:url(#clip-path-7);}.cls-11{clip-path:url(#clip-path-8);}.cls-12{clip-path:url(#clip-path-9);}.cls-13{clip-path:url(#clip-path-10);}.cls-14{clip-path:url(#clip-path-11);}.cls-15{isolation:isolate;}.cls-16{fill:#c6c5a9;}</style><clipPath id="clip-path"><rect id="_Slice_" data-name="&lt;Slice&gt;" class="cls-1" x="294" width="162" height="100"/></clipPath><clipPath id="clip-path-2"><rect class="cls-1" y="28.46" width="767" height="53.02"/></clipPath><clipPath id="clip-path-4"><rect class="cls-1" x="9.05" y="23.33" width="25.71" height="17.72"/></clipPath><clipPath id="clip-path-5"><rect class="cls-1" x="8.47" y="36.7" width="26.87" height="39.99"/></clipPath><clipPath id="clip-path-6"><rect class="cls-1" x="733.21" y="23.33" width="25.71" height="17.72"/></clipPath><clipPath id="clip-path-7"><rect class="cls-1" x="732.63" y="36.7" width="26.87" height="39.99"/></clipPath><clipPath id="clip-path-8"><rect class="cls-1" x="566.58" y="22.54" width="25.71" height="17.72"/></clipPath><clipPath id="clip-path-9"><rect class="cls-1" x="566" y="35.91" width="26.87" height="39.99"/></clipPath><clipPath id="clip-path-10"><rect class="cls-1" x="370.01" y="23.33" width="25.71" height="17.72"/></clipPath><clipPath id="clip-path-11"><rect class="cls-1" x="369.43" y="36.7" width="26.87" height="39.99"/></clipPath></defs><title>indicator-3</title><g id="Ebene_2" data-name="Ebene 2"><g id="Ebene_1-2" data-name="Ebene 1"><g class="cls-2"><rect width="767" height="100"/><g class="cls-3"><rect class="cls-4" y="47.86" width="767" height="3"/><g class="cls-3"><g class="cls-5"><g class="cls-6"><path class="cls-4" d="M21.91,40.2a5.48,5.48,0,0,0,0-10.94,5.48,5.48,0,0,0,0,10.94"/></g></g><g class="cls-5"><g class="cls-7"><path class="cls-4" d="M23.31,42.63H20.5a4.94,4.94,0,0,0-2.85,1.46l-.11.12a5.71,5.71,0,0,0-1.44,3.51v5.1a29.29,29.29,0,0,0,.34,4.08L18.31,68c.18,1.11-.24,2-.94,2s-1.27.92-1.27,2v1.71a1.93,1.93,0,0,0,1.76,2H26a1.94,1.94,0,0,0,1.77-2V72.08c0-1.13-.58-2-1.28-2s-1.12-.91-.93-2L27.38,56.9a29.29,29.29,0,0,0,.34-4.08v-5.1a5.76,5.76,0,0,0-1.44-3.51l-.12-.12a4.94,4.94,0,0,0-2.85-1.46"/></g></g><g class="cls-5"><g class="cls-8"><path class="cls-9" d="M746.07,40.2a5.48,5.48,0,1,0-5.22-5.72,2.09,2.09,0,0,0,0,.25,5.35,5.35,0,0,0,5.23,5.47h0"/></g></g><g class="cls-5"><g class="cls-10"><path class="cls-9" d="M747.48,42.63h-2.82a5,5,0,0,0-2.85,1.46l-.11.12a5.71,5.71,0,0,0-1.44,3.51v5.1a29.29,29.29,0,0,0,.34,4.08L742.47,68c.18,1.11-.24,2-.94,2s-1.27.92-1.27,2v1.71a1.93,1.93,0,0,0,1.76,2h8.1a1.93,1.93,0,0,0,1.76-2V72.08c0-1.13-.57-2-1.28-2s-1.12-.91-.93-2L751.54,57a29.29,29.29,0,0,0,.34-4.08v-5.1a5.76,5.76,0,0,0-1.44-3.51l-.12-.12a4.94,4.94,0,0,0-2.84-1.46"/></g></g><g id="Ebene_2-2" data-name="Ebene 2"><g class="cls-5"><g class="cls-11"><path class="cls-9" d="M579.43,39.41a5.48,5.48,0,1,0-5.22-5.72,2.09,2.09,0,0,0,0,.25,5.35,5.35,0,0,0,5.23,5.47h0"/></g></g><g id="Ebene_1-2-2" data-name="Ebene 1-2"><g class="cls-5"><g class="cls-12"><path class="cls-9" d="M580.84,41.83H578a4.9,4.9,0,0,0-2.85,1.47l-.12.11a5.82,5.82,0,0,0-1.44,3.52V52a29.81,29.81,0,0,0,.41,4.1l1.87,11.11c.19,1.12-.23,2-.93,2s-1.28.92-1.28,2.05V73a1.93,1.93,0,0,0,1.73,2h8.09a1.92,1.92,0,0,0,1.76-2V71.3c0-1.13-.57-2-1.27-2s-1.12-.91-.94-2L584.9,56.1a29.27,29.27,0,0,0,.34-4.07v-5.1a5.82,5.82,0,0,0-1.44-3.52l-.11-.11a4.9,4.9,0,0,0-2.85-1.47"/></g></g><g class="cls-5"><g class="cls-13"><path class="cls-9" d="M382.86,40.2a5.48,5.48,0,1,0-5.22-5.72,2.09,2.09,0,0,0,0,.25,5.36,5.36,0,0,0,5.23,5.47"/></g></g><g class="cls-5"><g class="cls-14"><path class="cls-9" d="M384.27,42.63h-2.81a4.94,4.94,0,0,0-2.85,1.46l-.12.12a5.76,5.76,0,0,0-1.44,3.51v5.1a30.9,30.9,0,0,0,.34,4.08L379.26,68c.19,1.11-.23,2-.93,2s-1.28.92-1.28,2v1.71a1.94,1.94,0,0,0,1.77,2h8.09a1.94,1.94,0,0,0,1.77-2V72.08c0-1.13-.58-2-1.28-2s-1.12-.91-.93-2L388.34,57a30.9,30.9,0,0,0,.34-4.08v-5.1a5.76,5.76,0,0,0-1.44-3.51l-.12-.12a4.94,4.94,0,0,0-2.85-1.46"/></g></g><path class="cls-4" d="M201.54,40.2a5.48,5.48,0,1,0-5.22-5.72,2.09,2.09,0,0,0,0,.25,5.35,5.35,0,0,0,5.23,5.47h0"/><path class="cls-4" d="M203,42.63h-2.82a5,5,0,0,0-2.85,1.46l-.11.12a5.76,5.76,0,0,0-1.44,3.51v5.1a29.29,29.29,0,0,0,.34,4.08L197.94,68c.19,1.11-.23,2-.94,2s-1.27.92-1.27,2v1.71a1.93,1.93,0,0,0,1.76,2h8.1a1.93,1.93,0,0,0,1.76-2V72.08c0-1.13-.57-2-1.27-2s-1.13-.91-.94-2L207,56.9a29.29,29.29,0,0,0,.34-4.08v-5.1a5.76,5.76,0,0,0-1.44-3.51l-.11-.12A5,5,0,0,0,203,42.63"/><g class="cls-15"><g class="cls-15"><path class="cls-16" d="M219.65,66.48h-2.73V75h-.8V66.48h-2.75v-.72h6.37Z"/></g><g class="cls-15"><path class="cls-16" d="M224.37,67.89l-.15.74a2.39,2.39,0,0,0-.62-.08c-1,0-1.52.7-1.9,2.15V75h-.78V68h.67l.07,1.59c.38-1.17,1-1.74,2-1.74A2.38,2.38,0,0,1,224.37,67.89Z"/><path class="cls-16" d="M227,65.41a.59.59,0,0,1-1.18,0,.59.59,0,0,1,1.18,0ZM226.76,75H226V68h.79Z"/><path class="cls-16" d="M234.06,68.52l-.39.52a2.33,2.33,0,0,0-1.58-.56c-1.28,0-2.19,1-2.19,3s.89,3,2.18,3a2.53,2.53,0,0,0,1.64-.6l.38.53a3.08,3.08,0,0,1-2,.76c-1.82,0-3-1.34-3-3.65s1.18-3.74,3-3.74A2.88,2.88,0,0,1,234.06,68.52Z"/><path class="cls-16" d="M236.77,75H236v-10l.79-.1Zm1-3.92L241.05,75h-1l-3.25-3.87,3-3.22h.91Z"/><path class="cls-16" d="M250.47,68.25c0,1.79-1,2.92-4,6.1h4.27l-.11.69h-5.08v-.66c3.35-3.57,4.14-4.5,4.14-6.09A1.62,1.62,0,0,0,248,66.54a2.47,2.47,0,0,0-2,1l-.54-.4a3.14,3.14,0,0,1,2.6-1.29A2.3,2.3,0,0,1,250.47,68.25Z"/></g></g></g></g></g></g></g></g></g></svg>